<?xml version="1.0" encoding="utf-8"?>
<!-- Generator: Adobe Illustrator 24.0.1, SVG Export Plug-In . SVG Version: 6.00 Build 0)  -->
<svg version="1.1"
	xmlns="http://www.w3.org/2000/svg"
	xmlns:xlink="http://www.w3.org/1999/xlink" x="0px" y="0px" viewBox="0 0 100 100" enable-background="new 0 0 100 100" xml:space="preserve">
	<g id="urazy_sportowe">

		<linearGradient id="SVGID_1_" gradientUnits="userSpaceOnUse" x1="-81.7956" y1="-122.8771" x2="15.7075" y2="-122.8771" gradientTransform="matrix(-0.3145 0.9493 -0.9493 -0.3145 -77.1738 43.5609)">
			<stop offset="0" style="stop-color:#FFFFFF"/>
			<stop offset="1" style="stop-color:#109FBC"/>
		</linearGradient>
		<path opacity="0.5" fill="url(#SVGID_1_)" d="M34.576,96.179C22.661,92.254,12.464,83.488,6.766,72.284
		c-2.858-5.591-4.615-11.752-5.118-18.029C1.135,47.977,1.89,41.596,3.82,35.582c1.973-6,5.117-11.621,9.239-16.421
		c4.115-4.805,9.19-8.787,14.839-11.657c5.652-2.863,11.872-4.61,18.2-5.094c6.328-0.493,12.751,0.292,18.794,2.257
		c6.039,1.978,11.7,5.137,16.536,9.282c4.841,4.137,8.856,9.243,11.752,14.928c2.874,5.695,4.637,11.958,5.103,18.329
		c0.458,6.372-0.372,12.824-2.38,18.88c-2.071,6.035-5.316,11.658-9.523,16.429c-4.218,4.762-9.393,8.636-15.081,11.389
		C59.906,99.417,46.445,100.236,34.576,96.179z M34.639,95.989c5.942,1.904,12.243,2.645,18.44,2.137
		c6.197-0.526,12.257-2.325,17.739-5.179c10.976-5.728,19.457-15.813,23.185-27.491c3.852-11.64,2.893-24.728-2.594-35.692
		c-2.723-5.484-6.532-10.432-11.153-14.463C75.64,11.264,70.212,8.16,64.388,6.185c-5.833-1.947-12.044-2.758-18.185-2.329
		c-6.14,0.42-12.198,2.067-17.722,4.809c-5.52,2.749-10.499,6.59-14.552,11.248c-4.061,4.653-7.179,10.121-9.159,15.983
		c-1.981,5.862-2.822,12.115-2.414,18.307c0.4,6.191,2.038,12.307,4.785,17.893c2.765,5.575,6.623,10.621,11.331,14.714
		C23.188,90.892,28.72,94.016,34.639,95.989z"/>
	</g>
	<g id="regeneracja_po_operacjach">
	</g>
	<g id="migreny">
	</g>
	<g id="depresja">
	</g>
	<g id="autyzm">
		<g>
			<radialGradient id="SVGID_2_" cx="50" cy="56.5341" r="26.9632" gradientUnits="userSpaceOnUse">
				<stop offset="0" style="stop-color:#FFFFFF"/>
				<stop offset="1" style="stop-color:#65ceff"/>
			</radialGradient>
			<path fill="url(#SVGID_2_)" d="M72.972,49.984c-0.175-0.174-0.363-0.327-0.564-0.458l-0.112-7.89
			c0.005-0.33,0.066-8.152-5.686-13.99c-0.435-0.441-1.149-0.448-1.591-0.012c-0.442,0.437-0.448,1.148-0.012,1.591
			c5.097,5.174,5.043,12.083,5.038,12.409l0.121,8.602c0.007,0.467,0.303,0.883,0.743,1.041c0.183,0.066,0.339,0.166,0.48,0.307
			c0.755,0.744,0.856,2.652,0.856,4.418c0,4.74-2.872,9.809-5.541,12.512c-0.133,0.135-0.229,0.301-0.281,0.482
			c-0.06,0.208-0.126,0.43-0.215,0.717c-2.52,8.163-8.877,13.578-16.131,13.795c-7.252-0.212-13.799-5.756-16.288-13.779
			l-0.093-0.314c-0.041-0.131-0.08-0.271-0.119-0.412c-0.051-0.184-0.148-0.354-0.283-0.489c-2.669-2.704-5.541-7.771-5.541-12.511
			c0-1.768,0.102-3.674,0.855-4.42c0.141-0.139,0.299-0.238,0.482-0.305c0.439-0.16,0.735-0.574,0.742-1.041l0.121-8.665
			c-0.002-0.07-0.052-7.178,5.038-12.344c0.437-0.442,0.431-1.154-0.012-1.591c-0.442-0.437-1.155-0.431-1.591,0.012
			c-5.745,5.83-5.69,13.629-5.685,13.925l-0.112,7.953c-0.2,0.13-0.389,0.282-0.563,0.454c-1.267,1.252-1.525,3.313-1.525,6.021
			c0,5.283,2.973,10.725,5.985,13.881c0.017,0.063,0.036,0.123,0.054,0.18l0.094,0.318c2.779,8.957,10.163,15.136,18.441,15.376
			c8.297-0.245,15.474-6.284,18.302-15.448c0.044-0.141,0.087-0.283,0.128-0.422c3.014-3.155,5.988-8.598,5.988-13.885
			C74.496,53.293,74.237,51.232,72.972,49.984z"/>
			<radialGradient id="SVGID_3_" cx="40.8711" cy="55.1934" r="2.3809" gradientUnits="userSpaceOnUse">
				<stop offset="0" style="stop-color:#FFFFFF"/>
				<stop offset="1" style="stop-color:#65ceff"/>
			</radialGradient>
			<path fill="url(#SVGID_3_)" d="M43.252,55.195c0-1.316-1.065-2.383-2.379-2.383c-1.316,0-2.383,1.066-2.383,2.383
			c0,1.314,1.066,2.379,2.383,2.379C42.187,57.574,43.252,56.51,43.252,55.195z"/>
			<radialGradient id="SVGID_5_" cx="59.1279" cy="55.1934" r="2.3814" gradientUnits="userSpaceOnUse">
				<stop offset="0" style="stop-color:#FFFFFF"/>
				<stop offset="1" style="stop-color:#65ceff"/>
			</radialGradient>
			<path fill="url(#SVGID_5_)" d="M61.51,55.195c0-1.316-1.066-2.383-2.38-2.383c-1.315,0-2.384,1.066-2.384,2.383
			c0,1.314,1.068,2.379,2.384,2.379C60.443,57.574,61.51,56.51,61.51,55.195z"/>
			<radialGradient id="SVGID_6_" cx="50.0013" cy="71.8875" r="6.38" gradientUnits="userSpaceOnUse">
				<stop offset="0" style="stop-color:#FFFFFF"/>
				<stop offset="1" style="stop-color:#65ceff"/>
			</radialGradient>
			<path fill="url(#SVGID_6_)" d="M50,74.393c5.654,0,8.148-2.848,8.415-3.173c0.394-0.481,0.322-1.19-0.158-1.583
			c-0.482-0.393-1.189-0.322-1.584,0.158c-0.019,0.023-1.976,2.348-6.673,2.348c-4.673,0-6.577-2.234-6.665-2.341
			c-0.388-0.483-1.095-0.56-1.579-0.173c-0.484,0.387-0.565,1.096-0.177,1.58C41.684,71.34,44.189,74.393,50,74.393z"/>
			<radialGradient id="SVGID_7_" cx="39.1328" cy="48.218" r="3.4518" gradientUnits="userSpaceOnUse">
				<stop offset="0" style="stop-color:#FFFFFF"/>
				<stop offset="1" style="stop-color:#65ceff"/>
			</radialGradient>
			<path fill="url(#SVGID_7_)" d="M34.72,49.384c0.133,0.505,0.589,0.839,1.087,0.839c0.095,0,0.191-0.012,0.288-0.038l6.651-1.759
			c0.601-0.158,0.959-0.774,0.8-1.375c-0.158-0.601-0.771-0.959-1.376-0.8l-6.65,1.758C34.919,48.168,34.56,48.783,34.72,49.384z"/>
			<radialGradient id="SVGID_8_" cx="60.3047" cy="48.218" r="3.4518" gradientUnits="userSpaceOnUse">
				<stop offset="0" style="stop-color:#FFFFFF"/>
				<stop offset="1" style="stop-color:#65ceff"/>
			</radialGradient>
			<path fill="url(#SVGID_8_)" d="M55.892,47.051c-0.159,0.601,0.199,1.217,0.8,1.375l6.651,1.759
			c0.097,0.026,0.193,0.038,0.288,0.038c0.498,0,0.954-0.334,1.087-0.839c0.159-0.601-0.199-1.216-0.8-1.375l-6.65-1.758
			C56.666,46.092,56.051,46.45,55.892,47.051z"/>
			<radialGradient id="SVGID_9_" cx="49.9999" cy="25.8062" r="11.7375" gradientUnits="userSpaceOnUse">
				<stop offset="0" style="stop-color:#FFFFFF"/>
				<stop offset="1" style="stop-color:#65ceff"/>
			</radialGradient>
			<path fill="url(#SVGID_9_)" d="M39.656,23.527c0.555,0.362,1.193,0.548,1.843,0.555l-2.629,4.037
			c-0.159,0.246-0.092,0.574,0.153,0.734l5.059,3.294c0.09,0.059,0.19,0.087,0.291,0.087c0.12,0,0.239-0.04,0.338-0.12
			c0.182-0.146,0.244-0.394,0.16-0.608c-0.289-0.723-0.21-1.535,0.212-2.185c0.457-0.702,1.224-1.081,2.003-1.081
			c0.446,0,0.896,0.124,1.297,0.385c1.104,0.72,1.413,2.2,0.696,3.299c-0.422,0.649-1.132,1.052-1.911,1.079
			c-0.229,0.01-0.432,0.167-0.491,0.393c-0.062,0.225,0.029,0.461,0.225,0.588l5.064,3.301c0.09,0.058,0.19,0.085,0.29,0.085
			c0.174,0,0.344-0.085,0.446-0.241l2.628-4.037c0.265,0.588,0.697,1.101,1.253,1.462c0.579,0.377,1.23,0.558,1.876,0.558
			c1.126,0,2.232-0.55,2.893-1.563c1.036-1.591,0.588-3.731-1.006-4.77c-0.558-0.362-1.196-0.547-1.845-0.554l2.63-4.037
			c0.16-0.246,0.09-0.574-0.155-0.735l-4.037-2.63c0.587-0.264,1.099-0.695,1.462-1.252c1.036-1.59,0.589-3.73-1.006-4.768
			c-0.578-0.377-1.23-0.558-1.875-0.558c-1.127,0-2.233,0.551-2.893,1.564c-0.359,0.552-0.548,1.195-0.556,1.844l-4.037-2.63
			c-0.089-0.058-0.189-0.085-0.288-0.085c-0.174,0-0.344,0.085-0.445,0.241l-2.63,4.037c-0.265-0.588-0.696-1.101-1.253-1.463
			c-0.579-0.377-1.231-0.558-1.876-0.558c-1.126,0-2.232,0.551-2.894,1.565C37.612,20.349,38.06,22.489,39.656,23.527z
			 M39.903,19.578c0.361-0.554,0.974-0.884,1.638-0.884c0.376,0,0.741,0.109,1.058,0.316c0.309,0.2,0.552,0.484,0.702,0.82
			c0.226,0.5,0.706,0.838,1.253,0.881c0.039,0.003,0.077,0.004,0.116,0.004c0.504,0,0.979-0.254,1.256-0.681l2.101-3.226l3.224,2.1
			c0.248,0.162,0.533,0.243,0.819,0.243c0.242,0,0.484-0.059,0.706-0.177c0.483-0.258,0.787-0.758,0.794-1.305
			c0.004-0.375,0.112-0.736,0.313-1.043c0.36-0.554,0.973-0.884,1.637-0.884c0.376,0,0.741,0.108,1.057,0.314
			c0.435,0.283,0.732,0.72,0.84,1.229c0.107,0.51,0.011,1.029-0.272,1.464c-0.202,0.309-0.485,0.552-0.819,0.702
			c-0.501,0.225-0.839,0.705-0.882,1.252c-0.042,0.547,0.217,1.073,0.677,1.373l3.227,2.102l-2.102,3.226
			c-0.299,0.459-0.323,1.044-0.064,1.527c0.258,0.482,0.76,0.786,1.307,0.791c0.375,0.004,0.734,0.111,1.04,0.311
			c0.899,0.586,1.153,1.795,0.568,2.693c-0.36,0.553-0.972,0.883-1.636,0.883c-0.376,0-0.741-0.108-1.058-0.315
			c-0.31-0.201-0.552-0.484-0.702-0.819c-0.226-0.501-0.706-0.839-1.253-0.881c-0.039-0.003-0.077-0.005-0.116-0.005
			c-0.504,0-0.979,0.255-1.256,0.682l-2.102,3.226l-2.633-1.716c0.389-0.277,0.729-0.628,0.996-1.039
			c0.566-0.867,0.759-1.904,0.546-2.92c-0.214-1.017-0.811-1.889-1.681-2.455c-0.63-0.411-1.361-0.628-2.115-0.628
			c-1.322-0.001-2.541,0.658-3.261,1.764c-0.267,0.411-0.449,0.863-0.546,1.331l-2.623-1.709l2.1-3.226
			c0.299-0.459,0.323-1.044,0.064-1.526c-0.258-0.483-0.759-0.787-1.307-0.792c-0.374-0.004-0.732-0.111-1.039-0.312
			c-0.436-0.283-0.734-0.72-0.842-1.229C39.525,20.531,39.622,20.012,39.903,19.578z"/>
		</g>
	</g>
	<g id="reumatyzm">
	</g>
	<g id="schorzenia_skry">
	</g>
	<g id="poprawa_cery">
	</g>
	<g id="wzmocnienie_kondycji">
	</g>
	<g id="infekcje">
	</g>
	<g id="nowe_komorki_macierzyste">
	</g>
	<g id="spowolnienie_procesow_starzenia">
	</g>
	<g id="rany_po_oparzeniach">
	</g>
	<g id="rzs">
	</g>
	<g id="borelioza">
	</g>
	<g id="urazy">
	</g>
	<g id="obrzeki">
	</g>
	<g id="stopa_cukrzycowa">
	</g>
	<g id="trudno_gojce_si_rany">
	</g>
	<g id="zapalenie_koci_i_szpiku">
	</g>
	<g id="choroby_serca">
	</g>
	<g id="uraz_rdzenia_krgowego">
	</g>
	<g id="rtg">
	</g>
	<g id="astma">
	</g>
</svg>
