<?xml version="1.0" encoding="utf-8"?>
<!-- Generator: Adobe Illustrator 24.0.1, SVG Export Plug-In . SVG Version: 6.00 Build 0)  -->
<svg version="1.1"
	xmlns="http://www.w3.org/2000/svg"
	xmlns:xlink="http://www.w3.org/1999/xlink" x="0px" y="0px" viewBox="0 0 100 100" enable-background="new 0 0 100 100" xml:space="preserve">
	<g id="urazy_sportowe">
		<linearGradient id="SVGID_1_" gradientUnits="userSpaceOnUse" x1="1.4969" y1="49.9055" x2="99" y2="49.9055">
			<stop offset="0" style="stop-color:#FFFFFF"/>
			<stop offset="1" style="stop-color:#65ceff"/>
		</linearGradient>
		<path opacity="0.5" fill="url(#SVGID_1_)" d="M98.1,50.155c0.021,12.545-5.093,24.981-13.938,33.914
		c-4.408,4.471-9.705,8.076-15.505,10.528c-5.798,2.46-12.093,3.75-18.409,3.81c-6.316,0.014-12.64-1.203-18.493-3.606
		c-5.855-2.395-11.231-5.96-15.732-10.42c-4.495-4.465-8.11-9.82-10.559-15.674C3.007,62.854,1.733,56.51,1.697,50.155
		C1.676,43.801,2.894,37.434,5.308,31.54c2.405-5.897,5.989-11.313,10.475-15.85c4.502-4.519,9.893-8.162,15.795-10.608
		c5.904-2.438,12.291-3.68,18.671-3.678c6.38,0.068,12.738,1.381,18.59,3.873c5.847,2.507,11.151,6.2,15.554,10.734
		C93.209,25.092,98.218,37.613,98.1,50.155z M97.9,50.155c-0.062-6.239-1.339-12.453-3.77-18.176
		c-2.448-5.717-6.061-10.904-10.494-15.211C74.747,8.15,62.506,3.271,50.248,3.404C37.987,3.407,25.865,8.433,17.183,17.09
		c-4.349,4.31-7.849,9.481-10.222,15.135C4.58,37.878,3.34,44.006,3.297,50.155c-0.014,6.149,1.17,12.3,3.507,17.995
		c2.329,5.697,5.798,10.93,10.138,15.311c4.346,4.376,9.557,7.894,15.253,10.277c5.694,2.391,11.865,3.633,18.053,3.669
		c6.188,0.037,12.388-1.131,18.137-3.465c5.751-2.326,11.042-5.805,15.48-10.169c4.423-4.377,7.999-9.626,10.404-15.383
		C96.662,62.629,97.889,56.395,97.9,50.155z"/>
	</g>
	<g id="regeneracja_po_operacjach">
	</g>
	<g id="migreny">
	</g>
	<g id="depresja">
	</g>
	<g id="autyzm">
	</g>
	<g id="reumatyzm">
	</g>
	<g id="schorzenia_skry">
	</g>
	<g id="poprawa_cery">
	</g>
	<g id="wzmocnienie_kondycji">
	</g>
	<g id="infekcje">
	</g>
	<g id="nowe_komorki_macierzyste">
	</g>
	<g id="spowolnienie_procesow_starzenia">
	</g>
	<g id="rany_po_oparzeniach">
	</g>
	<g id="rzs">
		<g>
			<radialGradient id="SVGID_2_" cx="49.9822" cy="59.7059" r="27.7135" gradientUnits="userSpaceOnUse">
				<stop offset="0" style="stop-color:#FFFFFF"/>
				<stop offset="1" style="stop-color:#65ceff"/>
			</radialGradient>
			<path fill="url(#SVGID_2_)" d="M83.394,63.392l-25.247-0.013c-0.001,0-0.001,0-0.001,0c-0.381,0-0.724,0.231-0.868,0.582
			c-0.536,1.314-1.278,2.49-2.202,3.498l-1.05,1.146c-0.569,0.625-1.48,1.338-2.247,1.912l-4.98,2.832l-7.1,3.324
			c-0.114,0.054-0.257,0.033-0.349-0.055c-1.306-1.217-1.625-3.164-0.776-4.734l0.229-0.425c0.081-0.147,0.471-0.706,2.18-1.729
			c0.849-0.568,1.632-1.248,2.328-2.021c0.004-0.005,0.051-0.059,0.056-0.063c0.033-0.039,0.065-0.082,0.092-0.127
			c0.409-0.67,0.434-1.488,0.069-2.182c-0.383-0.74-1.113-1.19-1.954-1.202l-17.259-0.22c-0.773-0.008-1.495-0.318-2.035-0.873
			c-0.541-0.555-0.834-1.285-0.823-2.061c0.001-0.134,0.019-0.268,0.041-0.4l5.993-0.064c0.206-0.003,0.387-0.085,0.54-0.199
			c1.104,0.795,2.487,1.251,3.947,1.251c0.036,0,0.071,0,0.107-0.001c1.36-0.021,2.66-0.447,3.722-1.168
			c0.139,0.08,0.29,0.139,0.462,0.141l2.574,0.006c0.001,0,0.002,0,0.003,0c0.517,0,0.936-0.418,0.938-0.936
			c0.001-0.518-0.418-0.938-0.935-0.939l-1.344-0.004l0,0c0.222-0.35,0.117-0.813-0.232-1.035c-0.351-0.223-0.813-0.117-1.034,0.232
			c-0.843,1.332-2.443,2.176-4.177,2.203c-0.028,0.001-0.057,0.001-0.085,0.001c-1.772,0-3.391-0.839-4.24-2.204
			c-0.219-0.352-0.682-0.461-1.033-0.24c-0.35,0.217-0.457,0.678-0.242,1.027l-5.684,0.061l-0.405-0.004
			c-0.772-0.01-1.496-0.321-2.037-0.877c-0.542-0.555-0.834-1.285-0.824-2.059c0.021-1.697,2.357-1.855,3.358-1.84
			c0.084-0.005,0.172-0.02,0.258-0.041l5.292,0.145c-0.098,0.322,0.017,0.678,0.319,0.857c0.355,0.213,0.815,0.098,1.028-0.26
			c0.829-1.387,2.45-2.266,4.232-2.293c0.028-0.001,0.058-0.001,0.086-0.001c1.846,0,3.547,0.933,4.351,2.392
			c0.137,0.248,0.393,0.389,0.658,0.389c0.122,0,0.246-0.031,0.36-0.094c0.363-0.199,0.495-0.656,0.296-1.02
			c-0.032-0.059-0.076-0.109-0.109-0.166l1.974-0.004c0.518-0.002,0.937-0.422,0.936-0.94c-0.002-0.517-0.421-0.935-0.938-0.935
			c-0.001,0-0.002,0-0.002,0l-3.301,0.006c-0.131,0.002-0.254,0.029-0.367,0.076c-1.122-0.775-2.517-1.221-3.967-1.203
			c-1.506,0.022-2.923,0.535-4.033,1.396c-0.06-0.014-0.116-0.039-0.182-0.041l-5.778-0.158c-0.056-0.109-0.116-0.22-0.18-0.334
			c-0.112-0.203-0.301-0.542-0.327-0.666c-0.179-0.859-0.091-1.541,0.261-2.025c0.457-0.629,1.438-1.047,2.842-1.207l0.876,0.011
			c0.003,0,0.005-0.001,0.007-0.001c0.002,0,0.004,0.001,0.005,0.001c0.001,0,0.002,0,0.002,0l11.828-0.024
			c0.518-0.002,0.937-0.422,0.936-0.939s-0.421-0.936-0.938-0.936c-0.001,0-0.001,0-0.002,0l-11.084,0.023
			c-0.016-0.125-0.031-0.251-0.03-0.377c0.011-0.773,0.321-1.496,0.876-2.037c0.555-0.541,1.298-0.805,2.057-0.822l9.484,0.119
			c0.532-0.017,0.942-0.408,0.949-0.926c0.007-0.517-0.408-0.943-0.926-0.949l-9.482-0.119c-1.266-0.012-2.477,0.463-3.391,1.354
			c-0.913,0.891-1.425,2.083-1.442,3.359c-0.001,0.136,0.003,0.271,0.014,0.406c-1.942,0.23-3.32,0.893-4.098,1.963
			c-0.676,0.931-0.87,2.111-0.577,3.514c0.047,0.225,0.138,0.449,0.246,0.672c-2.622,0.24-4.225,1.588-4.251,3.652
			c-0.017,1.273,0.466,2.479,1.356,3.393c0.716,0.733,1.626,1.208,2.616,1.375c-0.017,0.146-0.025,0.296-0.026,0.445
			c-0.017,1.272,0.466,2.477,1.354,3.389c0.891,0.914,2.083,1.425,3.356,1.439l17.259,0.22c0.059,0.001,0.215,0.003,0.314,0.193
			c0.066,0.126,0.047,0.226,0.021,0.286c-0.584,0.643-1.237,1.209-1.905,1.656c-1.507,0.902-2.431,1.693-2.824,2.418l-0.231,0.426
			c-1.254,2.324-0.782,5.203,1.146,7c0.416,0.389,0.948,0.592,1.49,0.592c0.315,0,0.634-0.07,0.935-0.211l7.096-3.322
			c0.052-0.023,0.101-0.049,0.156-0.08l4.958-2.822c0.085-0.048,0.167-0.1,0.24-0.156c0.843-0.637,1.795-1.389,2.464-2.119
			l1.048-1.145c0.936-1.02,1.708-2.186,2.302-3.473l24.633,0.013c0.001,0,0.001,0,0.001,0c0.519,0,0.938-0.419,0.938-0.937
			S83.911,63.392,83.394,63.392z"/>
			<radialGradient id="SVGID_3_" cx="67.4868" cy="43.4738" r="12.0513" gradientUnits="userSpaceOnUse">
				<stop offset="0" style="stop-color:#FFFFFF"/>
				<stop offset="1" style="stop-color:#65ceff"/>
			</radialGradient>
			<path fill="url(#SVGID_3_)" d="M52.501,41.123l-0.943-0.012c-0.532-0.018-0.942,0.41-0.949,0.926
			c-0.006,0.519,0.408,0.943,0.926,0.949l0.959,0.012c2.34,0.027,4.361,0.051,5.396,2.294c0.153,0.331,0.485,0.545,0.852,0.545
			h24.687c0.519,0,0.938-0.419,0.938-0.938c0-0.518-0.419-0.938-0.938-0.938H59.31C57.708,41.184,54.843,41.15,52.501,41.123z"/>
			<radialGradient id="SVGID_5_" cx="42.9266" cy="34.2529" r="9.5611" gradientUnits="userSpaceOnUse">
				<stop offset="0" style="stop-color:#FFFFFF"/>
				<stop offset="1" style="stop-color:#65ceff"/>
			</radialGradient>
			<path fill="url(#SVGID_5_)" d="M39.778,39.303c0.651,0.361,1.453,0.352,2.086-0.028l3.378-1.993l-0.327,8.834
			c-0.02,0.518,0.385,0.953,0.901,0.973c0.012,0,0.024,0,0.036,0c0.502,0,0.918-0.396,0.937-0.902l0.391-10.549
			c0.013-0.342-0.162-0.664-0.457-0.84c-0.294-0.176-0.661-0.178-0.956-0.002l-4.86,2.868c-0.065,0.038-0.146,0.04-0.211,0.003
			c-0.071-0.039-0.114-0.111-0.116-0.176l-0.031-15.137c-0.002-0.518-0.421-0.936-0.938-0.936c-0.001,0-0.002,0-0.002,0
			c-0.519,0-0.938,0.422-0.935,0.939l0.032,15.154C38.721,38.252,39.131,38.938,39.778,39.303z"/>
			<radialGradient id="SVGID_6_" cx="54.9391" cy="31.3354" r="6.4354" gradientUnits="userSpaceOnUse">
				<stop offset="0" style="stop-color:#FFFFFF"/>
				<stop offset="1" style="stop-color:#65ceff"/>
			</radialGradient>
			<path fill="url(#SVGID_6_)" d="M50.919,38.967c0.21,0,0.422-0.07,0.597-0.215l5.698-4.71c0.264-0.22,0.389-0.563,0.323-0.901
			c-0.065-0.336-0.309-0.61-0.636-0.715l-3.645-1.164l-0.285,0.893l0.269-0.969l6.355-5.855c0.381-0.35,0.405-0.943,0.054-1.324
			c-0.35-0.381-0.943-0.404-1.324-0.054l-6.354,5.854c-0.501,0.462-0.72,1.161-0.573,1.825c0.144,0.664,0.637,1.207,1.289,1.416
			l2.01,0.642l-4.375,3.617c-0.4,0.33-0.456,0.922-0.126,1.32C50.381,38.852,50.648,38.967,50.919,38.967z"/>
			<radialGradient id="SVGID_7_" cx="30.4577" cy="31.3349" r="6.4355" gradientUnits="userSpaceOnUse">
				<stop offset="0" style="stop-color:#FFFFFF"/>
				<stop offset="1" style="stop-color:#65ceff"/>
			</radialGradient>
			<path fill="url(#SVGID_7_)" d="M32.155,31.185c0.002,0-0.016,0.074-0.016,0.076l-3.643,1.164c-0.326,0.104-0.57,0.379-0.636,0.715
			c-0.064,0.338,0.059,0.682,0.324,0.901l5.696,4.71c0.176,0.145,0.387,0.215,0.598,0.215c0.27,0,0.538-0.115,0.723-0.34
			c0.33-0.398,0.273-0.99-0.125-1.32l-4.375-3.617l2.011-0.644c0.651-0.21,1.146-0.753,1.288-1.413
			c0.147-0.667-0.073-1.367-0.573-1.826l-6.354-5.855c-0.381-0.352-0.974-0.326-1.325,0.055c-0.351,0.381-0.326,0.973,0.054,1.324
			L32.155,31.185z"/>
		</g>
	</g>
	<g id="borelioza">
	</g>
	<g id="urazy">
	</g>
	<g id="obrzeki">
	</g>
	<g id="stopa_cukrzycowa">
	</g>
	<g id="trudno_gojce_si_rany">
	</g>
	<g id="zapalenie_koci_i_szpiku">
	</g>
	<g id="choroby_serca">
	</g>
	<g id="uraz_rdzenia_krgowego">
	</g>
	<g id="rtg">
	</g>
	<g id="astma">
	</g>
</svg>
