<?xml version="1.0" encoding="utf-8"?>
<!-- Generator: Adobe Illustrator 24.0.1, SVG Export Plug-In . SVG Version: 6.00 Build 0)  -->
<svg version="1.1"
	xmlns="http://www.w3.org/2000/svg"
	xmlns:xlink="http://www.w3.org/1999/xlink" x="0px" y="0px" viewBox="0 0 100 100" enable-background="new 0 0 100 100" xml:space="preserve">
	<g id="urazy_sportowe">

		<linearGradient id="SVGID_1_" gradientUnits="userSpaceOnUse" x1="1.3528" y1="50.5016" x2="98.8559" y2="50.5016" gradientTransform="matrix(0.9214 0.3887 -0.3887 0.9214 23.5395 -15.3674)">
			<stop offset="0" style="stop-color:#FFFFFF"/>
			<stop offset="1" style="stop-color:#65ceff"/>
		</linearGradient>
		<path opacity="0.5" fill="url(#SVGID_1_)" d="M94.069,69.465c-4.856,11.567-14.402,21.037-26.023,25.831
		c-5.799,2.406-12.081,3.67-18.378,3.674c-6.298,0.013-12.6-1.244-18.442-3.645c-5.825-2.442-11.179-6.021-15.638-10.51
		C11.125,80.333,7.557,74.959,5.144,69.1c-2.406-5.861-3.656-12.2-3.637-18.546c0.01-6.347,1.301-12.688,3.738-18.557
		c2.45-5.863,6.047-11.256,10.562-15.749c4.508-4.498,9.915-8.096,15.812-10.532c5.904-2.414,12.288-3.675,18.676-3.636
		c6.388,0.048,12.755,1.386,18.632,3.868c5.852,2.543,11.2,6.223,15.623,10.794c4.413,4.582,7.865,10.047,10.159,15.936
		C99.304,44.472,99.053,57.955,94.069,69.465z M93.885,69.388c2.368-5.773,3.607-11.995,3.591-18.213
		c-0.033-6.219-1.346-12.403-3.758-18.094c-4.84-11.395-14.223-20.648-25.568-25.29C56.851,3.029,43.729,2.949,32.365,7.551
		c-5.682,2.281-10.916,5.685-15.301,9.973C12.673,21.805,9.149,26.97,6.719,32.62c-2.403,5.66-3.703,11.788-3.762,17.944
		C2.889,56.717,4.052,62.887,6.348,68.61c2.303,5.721,5.738,10.988,10.06,15.397c4.317,4.416,9.52,7.958,15.207,10.397
		c5.687,2.439,11.854,3.773,18.058,3.856c6.203,0.092,12.43-1.057,18.215-3.353c5.776-2.314,11.112-5.761,15.565-10.13
		C87.897,80.399,91.45,75.132,93.885,69.388z"/>
	</g>
	<g id="regeneracja_po_operacjach">
	</g>
	<g id="migreny">
		<g>
			<radialGradient id="SVGID_2_" cx="50" cy="56.9555" r="26.9629" gradientUnits="userSpaceOnUse">
				<stop offset="0" style="stop-color:#FFFFFF"/>
				<stop offset="1" style="stop-color:#65ceff"/>
			</radialGradient>
			<path fill="url(#SVGID_2_)" d="M72.972,50.405c-0.175-0.173-0.363-0.326-0.564-0.457l-0.112-7.89
			c0.005-0.33,0.066-8.152-5.685-13.99c-0.435-0.441-1.149-0.448-1.591-0.012c-0.442,0.437-0.448,1.148-0.012,1.591
			c5.097,5.174,5.043,12.083,5.038,12.408l0.121,8.602c0.007,0.469,0.304,0.884,0.744,1.043c0.182,0.065,0.338,0.164,0.479,0.305
			c0.755,0.745,0.856,2.651,0.856,4.419c0,4.74-2.872,9.809-5.541,12.512c-0.133,0.134-0.229,0.299-0.281,0.48
			c-0.06,0.209-0.126,0.432-0.215,0.718c-2.52,8.163-8.877,13.578-16.131,13.796c-7.252-0.213-13.799-5.756-16.288-13.779
			l-0.093-0.315c-0.041-0.132-0.08-0.271-0.119-0.411c-0.051-0.184-0.148-0.354-0.283-0.49c-2.669-2.703-5.541-7.771-5.541-12.51
			c0-1.768,0.102-3.675,0.856-4.421c0.141-0.138,0.299-0.237,0.481-0.304c0.441-0.159,0.736-0.574,0.743-1.042l0.121-8.664
			c-0.002-0.071-0.052-7.178,5.038-12.344c0.437-0.442,0.431-1.155-0.012-1.591c-0.442-0.438-1.155-0.431-1.591,0.012
			c-5.745,5.83-5.69,13.629-5.685,13.925l-0.112,7.953c-0.2,0.13-0.388,0.281-0.564,0.453c-1.267,1.253-1.525,3.313-1.525,6.022
			c0,5.283,2.973,10.724,5.985,13.88c0.017,0.063,0.036,0.123,0.054,0.179l0.094,0.319c2.779,8.956,10.163,15.136,18.441,15.376
			c8.297-0.245,15.474-6.283,18.302-15.447c0.044-0.142,0.087-0.283,0.128-0.422c3.014-3.156,5.988-8.599,5.988-13.885
			C74.496,53.714,74.237,51.653,72.972,50.405z"/>
			<radialGradient id="SVGID_3_" cx="40.8711" cy="55.6147" r="2.3806" gradientUnits="userSpaceOnUse">
				<stop offset="0" style="stop-color:#FFFFFF"/>
				<stop offset="1" style="stop-color:#65ceff"/>
			</radialGradient>
			<path fill="url(#SVGID_3_)" d="M40.873,57.995c1.314,0,2.379-1.063,2.379-2.379c0-1.317-1.065-2.382-2.379-2.382
			c-1.316,0-2.383,1.064-2.383,2.382C38.49,56.932,39.557,57.995,40.873,57.995z"/>
			<radialGradient id="SVGID_5_" cx="59.1279" cy="55.6147" r="2.3811" gradientUnits="userSpaceOnUse">
				<stop offset="0" style="stop-color:#FFFFFF"/>
				<stop offset="1" style="stop-color:#65ceff"/>
			</radialGradient>
			<path fill="url(#SVGID_5_)" d="M61.51,55.616c0-1.317-1.066-2.382-2.38-2.382c-1.315,0-2.384,1.064-2.384,2.382
			c0,1.315,1.068,2.379,2.384,2.379C60.443,57.995,61.51,56.932,61.51,55.616z"/>
			<radialGradient id="SVGID_6_" cx="39.1518" cy="48.4276" r="3.4853" gradientUnits="userSpaceOnUse">
				<stop offset="0" style="stop-color:#FFFFFF"/>
				<stop offset="1" style="stop-color:#65ceff"/>
			</radialGradient>
			<path fill="url(#SVGID_6_)" d="M43.658,47.367c-0.143-0.604-0.746-0.98-1.354-0.837l-6.822,1.605
			c-0.604,0.142-0.979,0.747-0.837,1.353c0.122,0.519,0.584,0.867,1.095,0.867c0.084,0,0.172-0.01,0.258-0.03l6.822-1.604
			C43.426,48.578,43.8,47.973,43.658,47.367z"/>
			<radialGradient id="SVGID_7_" cx="59.779" cy="48.5337" r="3.4855" gradientUnits="userSpaceOnUse">
				<stop offset="0" style="stop-color:#FFFFFF"/>
				<stop offset="1" style="stop-color:#65ceff"/>
			</radialGradient>
			<path fill="url(#SVGID_7_)" d="M63.191,50.462c0.51,0,0.973-0.35,1.094-0.867c0.143-0.605-0.232-1.211-0.837-1.354l-6.823-1.604
			c-0.611-0.146-1.21,0.232-1.353,0.837c-0.142,0.606,0.232,1.211,0.837,1.353l6.823,1.605
			C63.019,50.452,63.105,50.462,63.191,50.462z"/>
			<radialGradient id="SVGID_8_" cx="49.7553" cy="23.9676" r="7.7235" gradientUnits="userSpaceOnUse">
				<stop offset="0" style="stop-color:#FFFFFF"/>
				<stop offset="1" style="stop-color:#65ceff"/>
			</radialGradient>
			<path fill="url(#SVGID_8_)" d="M47.828,26.473h2.79l-3.791,5.908c-0.335,0.522-0.183,1.219,0.34,1.555
			c0.187,0.12,0.398,0.178,0.606,0.178c0.37,0,0.732-0.183,0.947-0.518l4.902-7.641c0.223-0.347,0.237-0.786,0.041-1.146
			c-0.198-0.361-0.576-0.586-0.988-0.586h-4.624l4.952-8.72c0.307-0.54,0.117-1.227-0.424-1.534
			c-0.538-0.307-1.226-0.117-1.533,0.423l-5.061,8.912c-0.373,0.653-0.369,1.463,0.01,2.115
			C46.374,26.069,47.076,26.473,47.828,26.473z"/>
			<radialGradient id="SVGID_9_" cx="38.5717" cy="23.9693" r="6.7175" gradientUnits="userSpaceOnUse">
				<stop offset="0" style="stop-color:#FFFFFF"/>
				<stop offset="1" style="stop-color:#65ceff"/>
			</radialGradient>
			<path fill="url(#SVGID_9_)" d="M33.088,18.593l6.896,5.041l-3.337,1.503c-0.376,0.168-0.629,0.528-0.66,0.938
			c-0.032,0.41,0.163,0.805,0.508,1.029l6.283,4.092c0.19,0.124,0.402,0.183,0.613,0.183c0.367,0,0.728-0.18,0.943-0.511
			c0.339-0.521,0.191-1.218-0.329-1.557l-4.558-2.969l1.663-0.748c0.685-0.309,1.158-0.967,1.235-1.71
			c0.081-0.748-0.247-1.489-0.856-1.937l-7.075-5.172c-0.501-0.366-1.205-0.258-1.572,0.245
			C32.477,17.522,32.586,18.227,33.088,18.593z"/>
			<radialGradient id="SVGID_10_" cx="60.9158" cy="23.9693" r="6.7176" gradientUnits="userSpaceOnUse">
				<stop offset="0" style="stop-color:#FFFFFF"/>
				<stop offset="1" style="stop-color:#65ceff"/>
			</radialGradient>
			<path fill="url(#SVGID_10_)" d="M56.096,31.379c0.211,0,0.424-0.059,0.613-0.183l6.282-4.092c0.345-0.225,0.54-0.619,0.507-1.029
			c-0.031-0.41-0.283-0.77-0.658-0.938l-3.337-1.503l6.896-5.041c0.502-0.366,0.612-1.07,0.245-1.571
			c-0.367-0.503-1.072-0.611-1.572-0.245l-7.076,5.173c-0.608,0.443-0.937,1.185-0.857,1.931c0.078,0.749,0.553,1.406,1.238,1.715
			l1.662,0.748l-4.558,2.969c-0.521,0.339-0.668,1.036-0.329,1.557C55.368,31.199,55.728,31.379,56.096,31.379z"/>
			<radialGradient id="SVGID_11_" cx="50" cy="70.25" r="5.9013" gradientUnits="userSpaceOnUse">
				<stop offset="0" style="stop-color:#FFFFFF"/>
				<stop offset="1" style="stop-color:#65ceff"/>
			</radialGradient>
			<path fill="url(#SVGID_11_)" d="M42.855,71.375h14.289c0.621,0,1.125-0.504,1.125-1.125s-0.504-1.125-1.125-1.125H42.855
			c-0.621,0-1.125,0.504-1.125,1.125S42.234,71.375,42.855,71.375z"/>
		</g>
	</g>
	<g id="depresja">
	</g>
	<g id="autyzm">
	</g>
	<g id="reumatyzm">
	</g>
	<g id="schorzenia_skry">
	</g>
	<g id="poprawa_cery">
	</g>
	<g id="wzmocnienie_kondycji">
	</g>
	<g id="infekcje">
	</g>
	<g id="nowe_komorki_macierzyste">
	</g>
	<g id="spowolnienie_procesow_starzenia">
	</g>
	<g id="rany_po_oparzeniach">
	</g>
	<g id="rzs">
	</g>
	<g id="borelioza">
	</g>
	<g id="urazy">
	</g>
	<g id="obrzeki">
	</g>
	<g id="stopa_cukrzycowa">
	</g>
	<g id="trudno_gojce_si_rany">
	</g>
	<g id="zapalenie_koci_i_szpiku">
	</g>
	<g id="choroby_serca">
	</g>
	<g id="uraz_rdzenia_krgowego">
	</g>
	<g id="rtg">
	</g>
	<g id="astma">
	</g>
</svg>
