<?xml version="1.0" encoding="utf-8"?>
<!-- Generator: Adobe Illustrator 24.0.1, SVG Export Plug-In . SVG Version: 6.00 Build 0)  -->
<svg version="1.1"
	xmlns="http://www.w3.org/2000/svg"
	xmlns:xlink="http://www.w3.org/1999/xlink" x="0px" y="0px" viewBox="0 0 100 100" enable-background="new 0 0 100 100" xml:space="preserve">
	<g id="urazy_sportowe">

		<linearGradient id="SVGID_1_" gradientUnits="userSpaceOnUse" x1="287.8622" y1="-56.9645" x2="385.3653" y2="-56.9645" gradientTransform="matrix(0.7515 0.6598 -0.6598 0.7515 -240.3774 -128.1416)">
			<stop offset="0" style="stop-color:#FFFFFF"/>
			<stop offset="1" style="stop-color:#65ceff"/>
		</linearGradient>
		<path opacity="0.5" fill="url(#SVGID_1_)" d="M85.956,82.896c-8.261,9.441-20.309,15.412-32.849,16.29
		c-6.263,0.452-12.621-0.334-18.598-2.318c-5.98-1.976-11.562-5.16-16.347-9.283c-4.756-4.156-8.705-9.244-11.518-14.911
		c-2.82-5.663-4.508-11.889-4.947-18.21c-0.432-6.321,0.385-12.73,2.407-18.745c2.014-6.019,5.242-11.627,9.408-16.426
		c4.177-4.789,9.293-8.77,14.995-11.607c5.698-2.845,11.965-4.55,18.329-4.999c6.365-0.426,12.82,0.394,18.868,2.449
		c6.046,2.063,11.664,5.343,16.457,9.555c4.75,4.261,8.662,9.442,11.414,15.176c2.74,5.741,4.289,12.017,4.606,18.329
		C98.816,60.834,94.32,73.548,85.956,82.896z M85.806,82.764c4.07-4.729,7.21-10.242,9.159-16.146
		c1.932-5.911,2.64-12.193,2.149-18.354C96.12,35.922,90.14,24.18,80.842,16.192C71.625,8.106,59.2,3.885,46.964,4.662
		c-6.112,0.369-12.153,1.946-17.667,4.63c-5.519,2.676-10.494,6.464-14.583,11.056c-4.067,4.612-7.237,10.015-9.237,15.837
		c-2.008,5.818-2.854,12.039-2.483,18.195c0.379,6.155,1.974,12.237,4.682,17.786c2.701,5.554,6.519,10.558,11.146,14.667
		c4.625,4.11,10.055,7.324,15.916,9.362c5.857,2.046,12.128,2.923,18.342,2.571c6.212-0.372,12.363-1.956,17.967-4.695
		C76.646,91.32,81.681,87.445,85.806,82.764z"/>
	</g>
	<g id="regeneracja_po_operacjach">
	</g>
	<g id="migreny">
	</g>
	<g id="depresja">
	</g>
	<g id="autyzm">
	</g>
	<g id="reumatyzm">
	</g>
	<g id="schorzenia_skry">
	</g>
	<g id="poprawa_cery">
	</g>
	<g id="wzmocnienie_kondycji">
	</g>
	<g id="infekcje">
	</g>
	<g id="nowe_komorki_macierzyste">
	</g>
	<g id="spowolnienie_procesow_starzenia">
	</g>
	<g id="rany_po_oparzeniach">
	</g>
	<g id="rzs">
	</g>
	<g id="borelioza">
	</g>
	<g id="urazy">
	</g>
	<g id="obrzeki">
	</g>
	<g id="stopa_cukrzycowa">
		<g>
			<radialGradient id="SVGID_2_" cx="50.0001" cy="50" r="31.1208" gradientUnits="userSpaceOnUse">
				<stop offset="0" style="stop-color:#FFFFFF"/>
				<stop offset="1" style="stop-color:#65ceff"/>
			</radialGradient>
			<path fill="url(#SVGID_2_)" d="M80.096,69.739c-2.369-3.121-7.451-4.922-13.666-4.884c-3.754,0.03-6.447-1.799-10.514-4.581
			c-2.744-1.879-6.138-4.2-10.74-6.43c-1.846-8.769,2.463-31.267,3.281-33.066c0.253-0.557,0.006-1.215-0.551-1.468
			c-0.558-0.253-1.216-0.006-1.47,0.551c-1.077,2.373-5.592,25.993-3.295,35.025c0.082,0.321,0.301,0.588,0.6,0.729
			c4.692,2.226,8.002,4.49,10.923,6.488c4.053,2.773,7.264,4.97,11.652,4.97c0.045,0,0.09-0.001,0.135-0.001
			c5.432-0.028,9.961,1.481,11.879,4.008c0.869,1.147,1.109,2.424,0.713,3.795c-0.473,1.625-3.641,2.855-6.842,3.395
			c0.689-0.899,1.064-2,0.867-2.582c-0.662-1.961-5.516,0.123-7.553,1.134c-1.076,0.533-1.834,0.876-2.602,1.095
			c-1.381-0.228-2.785-0.487-4.233-0.758c-5.182-0.972-10.848-2.03-17.091-1.72c-1.859-0.674-3.075-1.801-6.875-2.031
			c-4.054-0.245-8.355-7.321-9.54-3.82c-0.503,1.487,0.755,5.954,2.962,7.926c-2.643,0.081-4.589-0.554-5.792-1.918
			c-2.363-2.679-2.008-8.508,0.978-15.992c1.542-3.863,1.738-12.116,1.632-18.359c-0.075-4.354-1.216-14.096-1.764-18.778
			c-0.139-1.193-0.235-1.993-0.248-2.183c-0.019-0.596-0.508-1.072-1.108-1.072c-0.613,0-1.109,0.497-1.109,1.109
			c0,0.145,0.025,0.369,0.263,2.404c0.501,4.283,1.676,14.315,1.749,18.558c0.146,8.537-0.378,14.752-1.475,17.499
			c-2.374,5.951-4.4,13.952-0.58,18.282c2.477,2.807,6.886,3.408,13.105,1.79c1.389-0.361,2.753-0.624,4.094-0.819
			c0.354-0.046,0.705-0.095,1.05-0.146c7.103-0.843,13.536,0.362,19.343,1.451c3.318,0.623,6.451,1.211,9.531,1.418
			c0.318,0.021,0.66,0.032,1.02,0.032c4.338,0,11.271-1.581,12.348-5.295C81.77,73.442,81.396,71.453,80.096,69.739z"/>
			<radialGradient id="SVGID_3_" cx="64.4023" cy="74.9571" r="0.9875" gradientUnits="userSpaceOnUse">
				<stop offset="0" style="stop-color:#FFFFFF"/>
				<stop offset="1" style="stop-color:#65ceff"/>
			</radialGradient>
			<path fill="url(#SVGID_3_)" d="M65.295,75.38c0.232-0.49,0.023-1.081-0.469-1.314c-0.492-0.234-1.082-0.024-1.316,0.468
			c-0.232,0.493-0.023,1.082,0.469,1.316C64.471,76.083,65.061,75.872,65.295,75.38z"/>
			<radialGradient id="SVGID_5_" cx="28.4302" cy="65.4693" r="1.1593" gradientUnits="userSpaceOnUse">
				<stop offset="0" style="stop-color:#FFFFFF"/>
				<stop offset="1" style="stop-color:#65ceff"/>
			</radialGradient>
			<path fill="url(#SVGID_5_)" d="M27.932,66.517c0.578,0.274,1.271,0.026,1.545-0.551c0.275-0.575,0.027-1.27-0.55-1.543
			c-0.578-0.275-1.271-0.028-1.544,0.549C27.109,65.55,27.354,66.241,27.932,66.517z"/>
			<radialGradient id="SVGID_6_" cx="34.6357" cy="65.1132" r="2.1653" gradientUnits="userSpaceOnUse">
				<stop offset="0" style="stop-color:#FFFFFF"/>
				<stop offset="1" style="stop-color:#65ceff"/>
			</radialGradient>
			<path fill="url(#SVGID_6_)" d="M33.708,67.069c1.08,0.513,2.371,0.05,2.883-1.027c0.513-1.082,0.055-2.372-1.025-2.884
			c-1.081-0.515-2.372-0.052-2.885,1.025C32.167,65.263,32.625,66.556,33.708,67.069z"/>
			<radialGradient id="SVGID_7_" cx="41.0448" cy="70.6328" r="1.5333" gradientUnits="userSpaceOnUse">
				<stop offset="0" style="stop-color:#FFFFFF"/>
				<stop offset="1" style="stop-color:#65ceff"/>
			</radialGradient>
			<path fill="url(#SVGID_7_)" d="M40.388,72.018c0.765,0.365,1.679,0.036,2.04-0.729c0.365-0.763,0.041-1.679-0.725-2.041
			c-0.765-0.364-1.681-0.038-2.043,0.727C39.298,70.738,39.623,71.655,40.388,72.018z"/>
			<radialGradient id="SVGID_8_" cx="59.8195" cy="73.0665" r="1.3014" gradientUnits="userSpaceOnUse">
				<stop offset="0" style="stop-color:#FFFFFF"/>
				<stop offset="1" style="stop-color:#65ceff"/>
			</radialGradient>
			<path fill="url(#SVGID_8_)" d="M59.262,74.242c0.648,0.309,1.424,0.03,1.732-0.617c0.309-0.649,0.033-1.426-0.617-1.735
			c-0.646-0.307-1.426-0.029-1.732,0.62C58.336,73.156,58.613,73.935,59.262,74.242z"/>
		</g>
	</g>
	<g id="trudno_gojce_si_rany">
	</g>
	<g id="zapalenie_koci_i_szpiku">
	</g>
	<g id="choroby_serca">
	</g>
	<g id="uraz_rdzenia_krgowego">
	</g>
	<g id="rtg">
	</g>
	<g id="astma">
	</g>
</svg>
