<?xml version="1.0" encoding="utf-8"?>
<!-- Generator: Adobe Illustrator 24.0.1, SVG Export Plug-In . SVG Version: 6.00 Build 0)  -->
<svg version="1.1"
	xmlns="http://www.w3.org/2000/svg"
	xmlns:xlink="http://www.w3.org/1999/xlink" x="0px" y="0px" viewBox="0 0 100 100" enable-background="new 0 0 100 100" xml:space="preserve">
	<g id="urazy_sportowe">

		<linearGradient id="SVGID_1_" gradientUnits="userSpaceOnUse" x1="168.1029" y1="16.1753" x2="265.606" y2="16.1753" gradientTransform="matrix(0.9214 0.3887 -0.3887 0.9214 -143.4423 -49.1445)">
			<stop offset="0" style="stop-color:#FFFFFF"/>
			<stop offset="1" style="stop-color:#65ceff"/>
		</linearGradient>
		<path opacity="0.5" fill="url(#SVGID_1_)" d="M94.069,68.869C89.213,80.437,79.667,89.907,68.047,94.7
		c-5.799,2.406-12.081,3.67-18.378,3.674c-6.298,0.013-12.6-1.244-18.442-3.645c-5.825-2.442-11.179-6.021-15.638-10.51
		c-4.464-4.482-8.032-9.857-10.445-15.715c-2.406-5.861-3.656-12.2-3.637-18.546c0.01-6.347,1.301-12.688,3.738-18.557
		c2.45-5.863,6.047-11.256,10.562-15.749c4.508-4.498,9.915-8.096,15.812-10.532c5.904-2.414,12.288-3.675,18.676-3.636
		c6.388,0.048,12.755,1.386,18.632,3.868c5.852,2.543,11.2,6.223,15.623,10.794c4.413,4.582,7.865,10.047,10.159,15.936
		C99.304,43.876,99.053,57.359,94.069,68.869z M93.885,68.792c2.368-5.773,3.607-11.995,3.591-18.213
		c-0.033-6.219-1.346-12.403-3.758-18.094C88.878,21.09,79.496,11.837,68.15,7.195C56.851,2.433,43.729,2.353,32.365,6.954
		c-5.682,2.281-10.916,5.685-15.301,9.973c-4.391,4.282-7.915,9.447-10.345,15.096c-2.403,5.66-3.703,11.788-3.762,17.944
		c-0.068,6.154,1.094,12.324,3.391,18.047c2.303,5.721,5.738,10.988,10.06,15.397c4.317,4.416,9.52,7.958,15.207,10.397
		c5.687,2.439,11.854,3.773,18.058,3.856c6.203,0.092,12.43-1.057,18.215-3.353C73.665,91.997,79,88.55,83.453,84.181
		C87.897,79.803,91.45,74.536,93.885,68.792z"/>
	</g>
	<g id="regeneracja_po_operacjach">
	</g>
	<g id="migreny">
	</g>
	<g id="depresja">
	</g>
	<g id="autyzm">
	</g>
	<g id="reumatyzm">
	</g>
	<g id="schorzenia_skry">
	</g>
	<g id="poprawa_cery">
	</g>
	<g id="wzmocnienie_kondycji">
	</g>
	<g id="infekcje">
	</g>
	<g id="nowe_komorki_macierzyste">
	</g>
	<g id="spowolnienie_procesow_starzenia">
	</g>
	<g id="rany_po_oparzeniach">
	</g>
	<g id="rzs">
	</g>
	<g id="borelioza">
		<g>
			<radialGradient id="SVGID_2_" cx="48.7969" cy="51.9431" r="21.5731" gradientUnits="userSpaceOnUse">
				<stop offset="0" style="stop-color:#FFFFFF"/>
				<stop offset="1" style="stop-color:#65ceff"/>
			</radialGradient>
			<path fill="url(#SVGID_2_)" d="M69.175,46.899l-2.118,1.848c-0.934,0.816-2.84,1.372-4.077,1.192l-2.003-0.292
			c-0.014-0.604-0.047-1.204-0.105-1.793c-0.088-0.929-0.226-1.803-0.409-2.622l1.536,0.222c1.073,0.154,2.078-0.149,2.759-0.839
			c0.681-0.689,0.975-1.698,0.804-2.77l-0.529-3.335c-0.092-0.578-0.634-0.973-1.211-0.883c-0.579,0.094-0.973,0.637-0.881,1.213
			l0.528,3.338c0.063,0.402-0.014,0.74-0.22,0.947c-0.205,0.209-0.54,0.29-0.943,0.232l-2.509-0.364
			c-0.637-1.667-1.518-3.003-2.61-3.952l2.774-1.577c0.508-0.289,0.686-0.938,0.397-1.445c-0.29-0.509-0.938-0.686-1.445-0.396
			l-2.968,1.688L55.34,33.95c-0.101-0.575-0.654-0.959-1.229-0.854c-0.576,0.102-0.959,0.653-0.855,1.229l0.563,3.141
			c-1.43-0.232-3.02-0.053-4.708,0.525l-1.883-1.693c-0.305-0.274-0.457-0.585-0.429-0.875c0.027-0.292,0.237-0.566,0.589-0.775
			l2.901-1.73c0.504-0.299,0.667-0.949,0.367-1.452c-0.3-0.503-0.949-0.667-1.452-0.368l-2.901,1.73
			c-0.931,0.556-1.519,1.426-1.612,2.39c-0.096,0.964,0.313,1.933,1.12,2.656l1.154,1.038c-0.746,0.385-1.507,0.839-2.274,1.362
			c-0.491,0.336-0.975,0.692-1.447,1.069l-1.506-1.353c-0.931-0.837-1.723-2.656-1.695-3.896l0.066-2.81
			c0.012-0.585-0.451-1.068-1.036-1.083c-0.585-0.012-1.068,0.45-1.083,1.034l-0.064,2.813c-0.043,1.848,1.012,4.273,2.396,5.519
			l1.303,1.169c-1.37,1.275-2.599,2.68-3.564,4.076l-2.36,1.166c-1.542,0.763-3.601,2.405-4.686,3.737L26.9,56.773
			c-0.37,0.452-0.301,1.12,0.152,1.489c0.069,0.057,0.144,0.103,0.22,0.138c0.43,0.2,0.957,0.093,1.27-0.29l4.115-5.057
			c0.82-1.01,2.43-2.321,3.668-3.011c-2.242,5.988,0.468,12.817,6.359,15.576c5.891,2.759,12.871,0.472,16.036-5.086
			c0.263,1.394,0.285,3.469,0.034,4.743l-1.25,6.4c-0.094,0.485,0.161,0.96,0.59,1.16c0.077,0.037,0.16,0.063,0.246,0.083
			c0.575,0.112,1.131-0.264,1.242-0.839l1.253-6.398c0.33-1.688,0.273-4.318-0.128-5.992l-0.615-2.559
			c0.455-1.634,0.747-3.477,0.851-5.347l1.731,0.251c1.844,0.268,4.381-0.477,5.774-1.691l2.12-1.848
			c0.44-0.387,0.485-1.056,0.101-1.496C70.285,46.56,69.617,46.515,69.175,46.899z M49.835,41.153
			c1.936-1.322,3.716-1.767,4.881-1.22c1.164,0.545,1.961,2.195,2.187,4.528c0.211,2.194-0.128,4.626-0.863,6.196
			c-1.345,2.871-4.775,4.113-7.645,2.768c-2.869-1.345-4.111-4.773-2.767-7.643C46.364,44.211,48.015,42.395,49.835,41.153z
			 M58.866,50.594c-0.024,2.162-0.328,4.327-0.865,6.16c-0.012,0.034-0.023,0.069-0.031,0.103c-0.204,0.684-0.44,1.32-0.708,1.892
			c-2.407,5.136-8.543,7.358-13.68,4.951c-5.136-2.405-7.358-8.54-4.953-13.677c0.27-0.572,0.607-1.163,1.003-1.759
			c0.019-0.026,0.037-0.055,0.055-0.083c1.066-1.589,2.535-3.208,4.181-4.613c0.009-0.007,0.017-0.014,0.025-0.022
			c0.471-0.4,0.956-0.782,1.451-1.141c-0.691,0.823-1.258,1.674-1.635,2.479c-1.84,3.928-0.142,8.618,3.787,10.459
			c3.929,1.842,8.621,0.143,10.461-3.787c0.376-0.804,0.668-1.784,0.858-2.841c0.042,0.61,0.059,1.229,0.052,1.848
			C58.867,50.572,58.866,50.583,58.866,50.594z"/>
			<radialGradient id="SVGID_3_" cx="50" cy="50" r="31.6763" gradientUnits="userSpaceOnUse">
				<stop offset="0" style="stop-color:#FFFFFF"/>
				<stop offset="1" style="stop-color:#65ceff"/>
			</radialGradient>
			<path fill="url(#SVGID_3_)" d="M50,18.324c-8.289,0-15.841,3.203-21.493,8.435c-0.028,0.022-0.063,0.033-0.088,0.06
			c-0.021,0.02-0.028,0.048-0.047,0.068c-6.177,5.785-10.049,14.003-10.049,23.114c0,17.465,14.21,31.675,31.677,31.675
			s31.677-14.21,31.677-31.675C81.677,32.534,67.467,18.324,50,18.324z M64.157,61.221c-0.368-0.37-0.967-0.37-1.336,0
			c-0.368,0.369-0.368,0.967,0,1.336l8.361,8.36c-5.404,5.472-12.903,8.87-21.183,8.87c-7.914,0-15.111-3.108-20.452-8.16
			c0.072-0.042,0.146-0.077,0.207-0.137l6.537-6.537c0.369-0.369,0.369-0.967,0-1.336c-0.368-0.37-0.967-0.37-1.337,0l-6.536,6.537
			c-0.059,0.06-0.095,0.134-0.135,0.202c-4.999-5.329-8.071-12.489-8.071-20.355c0-8.279,3.399-15.778,8.87-21.184l5.872,5.873
			c0.185,0.185,0.427,0.275,0.669,0.275c0.241,0,0.483-0.091,0.668-0.275c0.369-0.369,0.369-0.968,0-1.337l-5.819-5.817
			c5.233-4.556,12.06-7.323,19.527-7.323c7.851,0,14.996,3.058,20.322,8.037l-5.921,5.923c-0.37,0.368-0.37,0.966,0,1.335
			c0.184,0.185,0.424,0.277,0.667,0.277c0.242,0,0.483-0.093,0.668-0.277l5.924-5.924c5.032,5.336,8.127,12.521,8.127,20.417
			c0,7.466-2.768,14.293-7.323,19.527L64.157,61.221z"/>
		</g>
	</g>
	<g id="urazy">
	</g>
	<g id="obrzeki">
	</g>
	<g id="stopa_cukrzycowa">
	</g>
	<g id="trudno_gojce_si_rany">
	</g>
	<g id="zapalenie_koci_i_szpiku">
	</g>
	<g id="choroby_serca">
	</g>
	<g id="uraz_rdzenia_krgowego">
	</g>
	<g id="rtg">
	</g>
	<g id="astma">
	</g>
</svg>
