<?xml version="1.0" encoding="utf-8"?>
<!-- Generator: Adobe Illustrator 24.0.1, SVG Export Plug-In . SVG Version: 6.00 Build 0)  -->
<svg version="1.1"
	xmlns="http://www.w3.org/2000/svg"
	xmlns:xlink="http://www.w3.org/1999/xlink" x="0px" y="0px" viewBox="0 0 100 100" enable-background="new 0 0 100 100" xml:space="preserve">
	<g id="urazy_sportowe">

		<linearGradient id="SVGID_1_" gradientUnits="userSpaceOnUse" x1="259.9574" y1="-244.8089" x2="357.4605" y2="-244.8089" gradientTransform="matrix(-0.8588 0.5122 -0.5122 -0.8588 189.0501 -318.6978)">
			<stop offset="0" style="stop-color:#FFFFFF"/>
			<stop offset="1" style="stop-color:#65ceff"/>
		</linearGradient>
		<path opacity="0.5" fill="url(#SVGID_1_)" d="M8.092,73.984C1.648,63.22-0.329,49.92,2.691,37.718
		c1.496-6.098,4.198-11.907,7.924-16.984c3.719-5.083,8.465-9.415,13.859-12.702c5.417-3.247,11.472-5.442,17.73-6.376
		c6.256-0.942,12.699-0.634,18.849,0.891c6.148,1.532,11.995,4.28,17.097,8.053c5.108,3.767,9.452,8.563,12.738,14.002
		c3.273,5.447,5.488,11.539,6.435,17.838c0.955,6.296,0.652,12.784-0.878,18.978c-1.552,6.187-4.316,12.078-8.131,17.201
		c-3.822,5.119-8.671,9.456-14.151,12.723c-5.515,3.21-11.647,5.339-17.95,6.196c-6.305,0.842-12.753,0.387-18.857-1.252
		C25.131,93.004,14.415,84.817,8.092,73.984z M8.264,73.882c3.249,5.327,7.529,10.01,12.549,13.68
		c5.031,3.656,10.791,6.26,16.804,7.688c12.049,2.849,25.061,0.768,35.52-5.624c10.529-6.284,18.365-16.809,21.387-28.692
		c1.528-5.929,1.884-12.163,1.026-18.235c-0.85-6.074-2.924-11.973-6.037-17.276c-3.138-5.288-7.305-9.965-12.23-13.659
		c-4.919-3.7-10.578-6.417-16.55-7.956C54.76,2.276,48.482,1.924,42.369,2.795c-6.115,0.863-12.051,2.958-17.384,6.096
		c-5.333,3.138-10.06,7.317-13.802,12.267c-3.747,4.944-6.51,10.642-8.086,16.663c-1.556,6.025-1.939,12.365-1.056,18.541
		C2.938,62.535,5.078,68.517,8.264,73.882z"/>
	</g>
	<g id="regeneracja_po_operacjach">
	</g>
	<g id="migreny">
	</g>
	<g id="depresja">
	</g>
	<g id="autyzm">
	</g>
	<g id="reumatyzm">
	</g>
	<g id="schorzenia_skry">
	</g>
	<g id="poprawa_cery">
	</g>
	<g id="wzmocnienie_kondycji">
	</g>
	<g id="infekcje">
	</g>
	<g id="nowe_komorki_macierzyste">
	</g>
	<g id="spowolnienie_procesow_starzenia">
		<g>
			<radialGradient id="SVGID_2_" cx="68.3035" cy="31.7173" r="5.3197" gradientUnits="userSpaceOnUse">
				<stop offset="0" style="stop-color:#FFFFFF"/>
				<stop offset="1" style="stop-color:#65ceff"/>
			</radialGradient>
			<path fill="url(#SVGID_2_)" d="M66.292,24.789c-0.51,0-0.921,0.412-0.921,0.921v7.887c0,0.239,0.092,0.47,0.261,0.643l4.023,4.129
			c0.181,0.185,0.421,0.277,0.66,0.277c0.23,0,0.463-0.087,0.642-0.262c0.366-0.354,0.372-0.938,0.017-1.303l-3.761-3.858V25.71
			C67.213,25.201,66.801,24.789,66.292,24.789z"/>
			<radialGradient id="SVGID_3_" cx="67.2309" cy="31.8011" r="14.2046" gradientUnits="userSpaceOnUse">
				<stop offset="0" style="stop-color:#FFFFFF"/>
				<stop offset="1" style="stop-color:#65ceff"/>
			</radialGradient>
			<path fill="url(#SVGID_3_)" d="M67.092,17.922c-3.849,0-7.504,1.582-10.163,4.339l0.397-3.849c0.052-0.505-0.317-0.958-0.823-1.01
			c-0.497-0.054-0.958,0.314-1.01,0.821l-0.72,6.986c-0.03,0.294,0.083,0.585,0.304,0.782c0.171,0.152,0.39,0.232,0.612,0.232
			c0.066,0,0.134-0.007,0.201-0.021l6.482-1.44c0.495-0.109,0.808-0.601,0.698-1.098c-0.111-0.497-0.599-0.811-1.1-0.699
			l-4.031,0.895c2.336-2.602,5.655-4.096,9.152-4.096c6.783,0,12.3,5.516,12.3,12.299s-5.517,12.299-12.3,12.299
			c-5.79,0-10.853-4.107-12.04-9.768c-0.105-0.497-0.593-0.817-1.09-0.713c-0.499,0.104-0.817,0.592-0.714,1.091
			c1.364,6.508,7.187,11.232,13.844,11.232c7.798,0,14.142-6.344,14.142-14.142C81.233,24.266,74.89,17.922,67.092,17.922z"/>
			<radialGradient id="SVGID_5_" cx="39.2375" cy="50" r="28.5414" gradientUnits="userSpaceOnUse">
				<stop offset="0" style="stop-color:#FFFFFF"/>
				<stop offset="1" style="stop-color:#65ceff"/>
			</radialGradient>
			<path fill="url(#SVGID_5_)" d="M54.596,71.909l-1.68-23.463c0-1.253-0.243-2.478-0.723-3.643c-0.461-1.114-1.125-2.118-1.973-2.99
			c-0.029-0.041-0.062-0.081-0.098-0.117c-0.881-0.882-1.923-1.575-3.095-2.063c-0.165-0.068-2.531-1.049-5.459-2.261l-0.179-1.081
			c0.871-0.953,1.607-2.188,2.148-3.66c1.394-0.461,2.383-2.165,2.383-4.273c0-1.09-0.576-2.091-1.483-2.657v-0.567
			c0-3.049-1.882-5.788-4.672-6.934c0.002-0.046,0.004-0.092,0.004-0.137c0-1.571-1.28-2.851-2.851-2.851
			c-1.571,0-2.85,1.279-2.85,2.851c0,0.045,0.002,0.091,0.004,0.137c-2.79,1.147-4.674,3.886-4.674,6.934V25.7
			c-0.909,0.565-1.485,1.566-1.485,2.658c0,2.112,0.986,3.816,2.379,4.273c0.544,1.474,1.282,2.71,2.153,3.664l-0.181,1.076
			l-3.54,1.467c-1.108,0.459-1.834,0.761-1.919,0.796c-1.166,0.484-2.206,1.179-3.093,2.061c-0.034,0.035-0.067,0.073-0.096,0.115
			c-0.849,0.872-1.512,1.879-1.975,2.991c-0.48,1.159-0.726,2.386-0.722,3.579L18.769,78.54c-0.02,0.255,0.069,0.505,0.243,0.692
			c0.175,0.187,0.419,0.293,0.674,0.293c0.687,0,1.358-0.132,2.001-0.396c0.644-0.269,1.215-0.649,1.696-1.133
			c0.029-0.027,0.056-0.057,0.079-0.09c0.445-0.463,0.81-1.017,1.057-1.608c0.031-0.076,0.052-0.156,0.063-0.238l1.867-14.448
			l0.069,6.099c-0.356,1.566-1.32,9.528-2.195,17.076h1.858c0.933-8.034,1.855-15.611,2.092-16.558
			c0.059-0.126,0.092-0.265,0.09-0.406l-0.213-18.975c1.086-0.959,2.464-1.491,3.926-1.491c0.017,0,0.036,0,0.054-0.002
			c1.543,0.015,2.991,0.614,4.095,1.694c0.013,0.017,0.028,0.033,0.044,0.049c0.36,0.358,0.944,0.358,1.303,0
			c1.12-1.123,2.611-1.741,4.198-1.741c0.02,0,0.036,0,0.054-0.002c1.439,0.014,2.792,0.541,3.862,1.486l-0.209,18.982
			c-0.002,0.129,0.025,0.253,0.075,0.369c0.265,1.066,1.26,9.338,2.104,16.595h1.859c-0.831-7.163-1.836-15.478-2.195-17.076
			l0.066-6.097l1.871,14.446c0.011,0.082,0.032,0.162,0.063,0.238c0.248,0.591,0.61,1.143,1.054,1.604
			c0.023,0.032,0.05,0.063,0.079,0.092c0.476,0.48,1.048,0.862,1.702,1.135c0.637,0.264,1.308,0.396,1.997,0.396
			c0.255,0,0.501-0.106,0.676-0.293c0.172-0.188,0.261-0.438,0.243-0.692l-0.338-4.723c1.798,0.485,3.136,2.136,3.136,4.072v6.897
			h1.842V77.89C59.709,74.892,57.481,72.373,54.596,71.909z M31.24,26.271v-1.138c0-2.515,1.706-4.753,4.148-5.442
			c0.253-0.071,0.465-0.249,0.579-0.486c0.115-0.239,0.121-0.514,0.02-0.757c-0.05-0.121-0.077-0.25-0.077-0.385
			c0-0.556,0.453-1.009,1.008-1.009c0.557,0,1.009,0.453,1.009,1.009c0,0.133-0.026,0.263-0.078,0.388
			c-0.101,0.242-0.094,0.518,0.021,0.755c0.115,0.236,0.327,0.414,0.58,0.485c2.442,0.688,4.146,2.926,4.146,5.442v1.138v1.291
			c-2.706-0.216-5.216-1.37-7.149-3.308c-0.195-0.195-0.466-0.29-0.742-0.266c-0.274,0.026-0.523,0.175-0.676,0.405
			c-0.69,1.035-1.658,1.817-2.788,2.271V26.271z M31.866,31.547c-0.119-0.366-0.453-0.619-0.837-0.636
			c-0.563-0.022-1.18-0.987-1.259-2.281c0.207,0.156,0.472,0.221,0.73,0.169c1.73-0.343,3.264-1.229,4.409-2.533
			c2.395,2.055,5.413,3.175,8.607,3.175c0.171,0,0.32-0.058,0.455-0.137c-0.212,0.94-0.71,1.587-1.173,1.608
			c-0.384,0.017-0.718,0.27-0.837,0.636c-0.537,1.659-1.36,2.999-2.327,3.887c-0.163,0.148-0.326,0.291-0.495,0.411
			c-0.042,0.029-0.084,0.055-0.124,0.082c-1.342,0.888-2.851,0.889-4.197,0C34.78,35.9,34.74,35.876,34.7,35.849
			c-0.169-0.12-0.334-0.263-0.497-0.41C33.234,34.55,32.407,33.209,31.866,31.547z M52.859,77.429
			c-0.394-0.165-0.741-0.388-1.033-0.665c-0.021-0.027-0.046-0.055-0.07-0.079c-0.284-0.284-0.522-0.624-0.689-0.99l-3.544-27.366
			c-0.005-0.03-0.022-0.055-0.028-0.085c-0.017-0.071-0.034-0.14-0.069-0.208c-0.021-0.042-0.05-0.077-0.076-0.115
			c-0.029-0.042-0.048-0.09-0.085-0.128c-1.468-1.469-3.419-2.278-5.495-2.278c-0.021,0-0.04,0-0.062,0.002
			c-1.762,0.014-3.429,0.608-4.787,1.694c-1.372-1.1-3.063-1.696-4.845-1.696c-0.021,0-0.042,0-0.062,0.002
			c-2.024,0.016-3.924,0.804-5.371,2.217c-0.005,0.004-0.009,0.008-0.013,0.011c-0.02,0.02-0.039,0.034-0.056,0.052
			c-0.027,0.025-0.035,0.058-0.058,0.085c-0.044,0.056-0.085,0.109-0.115,0.174c-0.025,0.053-0.038,0.106-0.054,0.163
			c-0.01,0.037-0.031,0.07-0.037,0.112l-3.54,27.365c-0.167,0.365-0.404,0.706-0.688,0.99c-0.024,0.022-0.048,0.049-0.067,0.074
			c-0.297,0.281-0.646,0.506-1.034,0.668c-0.098,0.04-0.195,0.075-0.293,0.106l2.072-29.087c0-1.016,0.197-2.004,0.585-2.938
			c0.386-0.931,0.948-1.769,1.671-2.493c0.031-0.031,0.06-0.066,0.087-0.102c0.694-0.671,1.506-1.201,2.413-1.579
			c0.089-0.035,0.811-0.335,1.913-0.794l4.013-1.663c0.293-0.121,0.504-0.386,0.557-0.697l0.088-0.524
			c0.008,0.005,0.016,0.008,0.022,0.013c0.875,0.518,1.823,0.8,2.81,0.8c0.74,0,1.46-0.161,2.143-0.458
			c0.006-0.003,0.013-0.006,0.019-0.009c0.215-0.095,0.428-0.204,0.636-0.327c0.011-0.006,0.022-0.011,0.034-0.018l0.086,0.521
			c0.052,0.314,0.262,0.579,0.555,0.7c3.144,1.305,5.761,2.388,5.931,2.458c0.908,0.378,1.716,0.906,2.406,1.573
			c0.027,0.038,0.06,0.074,0.093,0.107c0.723,0.724,1.285,1.56,1.671,2.49c0.386,0.94,0.583,1.93,0.585,3.006l2.074,29.023
			C53.053,77.503,52.955,77.468,52.859,77.429z"/>
		</g>
	</g>
	<g id="rany_po_oparzeniach">
	</g>
	<g id="rzs">
	</g>
	<g id="borelioza">
	</g>
	<g id="urazy">
	</g>
	<g id="obrzeki">
	</g>
	<g id="stopa_cukrzycowa">
	</g>
	<g id="trudno_gojce_si_rany">
	</g>
	<g id="zapalenie_koci_i_szpiku">
	</g>
	<g id="choroby_serca">
	</g>
	<g id="uraz_rdzenia_krgowego">
	</g>
	<g id="rtg">
	</g>
	<g id="astma">
	</g>
</svg>
