<?xml version="1.0" encoding="utf-8"?>
<!-- Generator: Adobe Illustrator 24.0.1, SVG Export Plug-In . SVG Version: 6.00 Build 0)  -->
<svg version="1.1"
	xmlns="http://www.w3.org/2000/svg"
	xmlns:xlink="http://www.w3.org/1999/xlink" x="0px" y="0px" viewBox="0 0 100 100" enable-background="new 0 0 100 100" xml:space="preserve">
	<g id="urazy_sportowe">

		<linearGradient id="SVGID_1_" gradientUnits="userSpaceOnUse" x1="137.0202" y1="-574.3909" x2="234.5233" y2="-574.3909" gradientTransform="matrix(-0.9974 0.0714 -0.0714 -0.9974 193.8807 -536.6614)">
			<stop offset="0" style="stop-color:#FFFFFF"/>
			<stop offset="1" style="stop-color:#65ceff"/>
		</linearGradient>
		<path opacity="0.5" fill="url(#SVGID_1_)" d="M1.874,52.705C0.957,40.193,5.17,27.424,13.353,17.882
		c4.077-4.775,9.103-8.749,14.713-11.609c5.607-2.868,11.794-4.605,18.09-5.115C52.455,0.692,58.85,1.454,64.86,3.433
		c6.011,1.971,11.629,5.143,16.436,9.269c4.803,4.133,8.791,9.216,11.652,14.88c2.869,5.661,4.594,11.898,5.084,18.234
		c0.475,6.337-0.285,12.775-2.272,18.826c-1.978,6.054-5.165,11.712-9.316,16.558c-4.168,4.829-9.285,8.848-14.996,11.71
		c-5.715,2.854-11.996,4.549-18.36,5.002c-6.369,0.388-12.804-0.467-18.819-2.535c-6.011-2.082-11.566-5.388-16.281-9.596
		C8.544,77.354,2.652,65.224,1.874,52.705z M2.074,52.69c0.507,6.219,2.225,12.326,5.059,17.861
		c2.85,5.528,6.825,10.443,11.554,14.422c9.482,7.961,22.04,11.953,34.257,10.945c12.23-0.88,23.961-6.759,32.003-16.014
		c4.03-4.609,7.151-10.017,9.114-15.827c1.972-5.808,2.77-12.009,2.374-18.146c-0.426-6.134-2.045-12.185-4.784-17.699
		c-2.73-5.516-6.564-10.487-11.206-14.547c-4.647-4.054-10.097-7.191-15.949-9.161c-5.85-1.979-12.094-2.776-18.269-2.37
		C40.053,2.56,33.952,4.168,28.385,6.907c-5.57,2.731-10.599,6.579-14.714,11.249C9.572,22.839,6.38,28.33,4.392,34.243
		C2.417,40.16,1.639,46.466,2.074,52.69z"/>
	</g>
	<g id="regeneracja_po_operacjach">
	</g>
	<g id="migreny">
	</g>
	<g id="depresja">
	</g>
	<g id="autyzm">
	</g>
	<g id="reumatyzm">
	</g>
	<g id="schorzenia_skry">
	</g>
	<g id="poprawa_cery">
	</g>
	<g id="wzmocnienie_kondycji">
	</g>
	<g id="infekcje">
	</g>
	<g id="nowe_komorki_macierzyste">
	</g>
	<g id="spowolnienie_procesow_starzenia">
	</g>
	<g id="rany_po_oparzeniach">
		<g>
			<radialGradient id="SVGID_2_" cx="36.3506" cy="64.4109" r="16.9448" gradientUnits="userSpaceOnUse">
				<stop offset="0" style="stop-color:#FFFFFF"/>
				<stop offset="1" style="stop-color:#65ceff"/>
			</radialGradient>
			<path fill="url(#SVGID_2_)" d="M50.646,67.689c-0.439-5.717-3.102-9.302-5.449-12.462c-2.176-2.929-4.055-5.456-4.055-9.187
			c0-0.301-0.168-0.572-0.432-0.712c-0.27-0.138-0.588-0.115-0.832,0.061c-3.527,2.525-6.469,6.778-7.498,10.837
			c-0.715,2.828-0.809,6.004-0.822,8.103c-3.258-0.695-3.994-5.568-4.002-5.622c-0.037-0.253-0.191-0.473-0.416-0.592
			c-0.226-0.12-0.494-0.128-0.725-0.014c-0.17,0.083-4.191,2.126-4.426,10.287c-0.017,0.271-0.017,0.542-0.017,0.813
			c0,7.93,6.451,14.379,14.379,14.379c7.926,0,14.377-6.449,14.377-14.379c0-0.396-0.027-0.768-0.057-1.137L50.646,67.689z
			 M36.352,81.983c-2.645,0-4.793-2.288-4.793-5.105c0-0.096-0.002-0.191,0.006-0.309c0.031-1.188,0.256-1.999,0.504-2.538
			c0.465,0.996,1.293,1.909,2.637,1.909c0.441,0,0.801-0.356,0.801-0.799c0-1.135,0.023-2.449,0.307-3.633
			c0.252-1.05,0.854-2.166,1.617-3.063c0.34,1.161,1,2.104,1.646,3.021c0.924,1.314,1.881,2.671,2.047,4.988
			c0.01,0.137,0.02,0.273,0.02,0.422C41.143,79.695,38.994,81.983,36.352,81.983z M41.398,80.941c0.83-1.131,1.342-2.53,1.342-4.063
			c0-0.187-0.012-0.361-0.035-0.688c-0.19-2.608-1.322-4.22-2.322-5.643c-0.854-1.21-1.588-2.256-1.588-3.739
			c0-0.303-0.174-0.581-0.445-0.716c-0.27-0.135-0.596-0.104-0.836,0.078c-1.531,1.157-2.811,3.106-3.256,4.966
			c-0.229,0.955-0.307,1.986-0.336,2.835c-0.555-0.596-0.725-1.701-0.727-1.714c-0.037-0.258-0.193-0.48-0.424-0.601
			c-0.228-0.12-0.502-0.122-0.732-0.005c-0.201,0.105-1.969,1.119-2.072,4.85c-0.006,0.126-0.006,0.252-0.006,0.376
			c0,1.533,0.512,2.933,1.342,4.063c-4.543-1.963-7.732-6.482-7.732-11.736c0-0.241,0-0.478,0.016-0.746
			c0.137-4.787,1.67-7.16,2.67-8.209c0.697,2.497,2.523,5.76,6.1,5.76c0.441,0,0.801-0.358,0.801-0.801
			c0-2.671,0.059-5.76,0.773-8.588c0.811-3.207,3.035-6.665,5.717-9.008c0.445,3.422,2.309,5.93,4.268,8.564
			c2.328,3.135,4.736,6.376,5.139,11.625l0.027,0.381c0.025,0.332,0.051,0.665,0.051,1.021
			C49.131,74.459,45.941,78.979,41.398,80.941z"/>
			<radialGradient id="SVGID_3_" cx="59.4287" cy="68.1694" r="7.5503" gradientUnits="userSpaceOnUse">
				<stop offset="0" style="stop-color:#FFFFFF"/>
				<stop offset="1" style="stop-color:#65ceff"/>
			</radialGradient>
			<path fill="url(#SVGID_3_)" d="M53.025,61.286c-0.389-0.342-0.98-0.304-1.322,0.084c-0.344,0.389-0.305,0.982,0.082,1.323
			l14.047,12.359c0.18,0.156,0.398,0.233,0.619,0.233c0.26,0,0.52-0.107,0.703-0.317c0.344-0.39,0.305-0.983-0.082-1.324
			L53.025,61.286z"/>
			<radialGradient id="SVGID_5_" cx="49.9996" cy="38.2792" r="26.6324" gradientUnits="userSpaceOnUse">
				<stop offset="0" style="stop-color:#FFFFFF"/>
				<stop offset="1" style="stop-color:#65ceff"/>
			</radialGradient>
			<path fill="url(#SVGID_5_)" d="M80.352,58.5L61.154,41.617c0.422-1.412,0.621-2.852,0.592-4.289l-0.031-1.61
			c-0.021-1.045-0.262-2.329-0.467-3.332c-0.018-0.091-0.043-0.177-0.076-0.281l-1.92-5.567c-0.016-0.052-0.035-0.101-0.072-0.19
			l-3.248-7.447c-0.367-0.847-1.215-1.38-2.117-1.345c-2.721,0.077-5.045,1.984-5.654,4.639l-0.109,0.483
			c-0.191,0.829-0.016,2.073,0.525,3.755c0.225,0.848,0.346,1.724,0.363,2.66c-0.037,0.108-0.115,0.188-0.242,0.235
			c-0.221,0.088-0.358-0.033-0.404-0.073L34.709,17.602c-0.994-0.854-2.262-1.27-3.572-1.169c-1.31,0.1-2.5,0.703-3.355,1.697
			c-0.108,0.125-0.207,0.254-0.301,0.39c-2.025-1.271-4.738-0.903-6.34,0.965c-1.389,1.62-1.053,3.766,0.84,5.744
			c-0.252,0.104-0.492,0.222-0.691,0.372c-1.18,0.882-1.832,1.927-1.943,3.104c-0.127,1.365,0.498,2.821,1.859,4.331
			c-0.109,0.106-0.215,0.217-0.315,0.332c-0.851,0.995-1.266,2.266-1.166,3.575c0.1,1.309,0.703,2.5,1.699,3.352l10.244,8.789
			c0.392,0.339,0.984,0.293,1.32-0.101c0.338-0.393,0.293-0.984-0.1-1.321l-10.246-8.791c-0.613-0.525-0.986-1.263-1.049-2.072
			c-0.063-0.812,0.193-1.597,0.719-2.209c0.094-0.108,0.201-0.205,0.311-0.299l8.633,7.635c0.18,0.156,0.4,0.234,0.621,0.234
			c0.26,0,0.517-0.107,0.703-0.316c0.344-0.388,0.307-0.98-0.082-1.323l-9.188-8.125c-0.002-0.001-0.004-0.001-0.004-0.002
			c-0.002-0.002-0.004-0.004-0.006-0.006l-0.691-0.595c-1.004-1.108-1.475-2.089-1.396-2.913c0.059-0.629,0.463-1.228,1.201-1.78
			c0.109-0.083,0.49-0.219,0.717-0.3c0.121-0.043,0.234-0.085,0.348-0.129l13.723,12.136c0.18,0.157,0.4,0.235,0.621,0.235
			c0.26,0,0.518-0.107,0.703-0.316c0.344-0.388,0.307-0.98-0.082-1.323L24.119,24.735c-0.053-0.093-0.117-0.18-0.197-0.249
			c-0.797-0.684-2.523-2.421-1.357-3.781c1.09-1.271,3.014-1.419,4.285-0.328l0.32,0.275l14.035,12.408
			c0.18,0.157,0.4,0.235,0.621,0.235c0.26,0,0.518-0.107,0.701-0.316c0.344-0.389,0.307-0.98-0.08-1.323L28.945,19.717
			c0.078-0.128,0.162-0.252,0.258-0.365c0.529-0.615,1.266-0.988,2.076-1.05c0.805-0.06,1.594,0.194,2.209,0.723l13.584,11.652
			c0.652,0.559,1.516,0.709,2.305,0.398c0.754-0.29,1.287-0.933,1.426-1.722c0.01-0.053,0.014-0.107,0.014-0.162
			c0-0.003,0-0.075,0-0.078c-0.012-1.07-0.156-2.133-0.441-3.208c-0.617-1.928-0.537-2.636-0.496-2.81l0.109-0.484
			c0.418-1.821,2.014-3.129,3.883-3.183c0.152-0.019,0.281,0.08,0.34,0.218l3.26,7.477l1.941,5.641c0.19,0.925,0.41,2.1,0.428,2.992
			l0.031,1.609c0.029,1.422-0.201,2.849-0.684,4.243c-0.125,0.36-0.019,0.759,0.268,1.011l19.658,17.288
			c0.178,0.157,0.398,0.233,0.619,0.233c0.26,0,0.518-0.107,0.705-0.318C80.777,59.434,80.74,58.842,80.352,58.5z"/>
			<radialGradient id="SVGID_6_" cx="53.9043" cy="55.1065" r="2.5294" gradientUnits="userSpaceOnUse">
				<stop offset="0" style="stop-color:#FFFFFF"/>
				<stop offset="1" style="stop-color:#65ceff"/>
			</radialGradient>
			<path fill="url(#SVGID_6_)" d="M54.018,57.633c1.393-0.063,2.476-1.244,2.414-2.639c-0.063-1.395-1.244-2.477-2.641-2.414
			c-1.393,0.062-2.477,1.244-2.414,2.639C51.439,56.614,52.623,57.695,54.018,57.633z"/>
			<radialGradient id="SVGID_7_" cx="49.4288" cy="50.4522" r="1.2992" gradientUnits="userSpaceOnUse">
				<stop offset="0" style="stop-color:#FFFFFF"/>
				<stop offset="1" style="stop-color:#65ceff"/>
			</radialGradient>
			<path fill="url(#SVGID_7_)" d="M48.131,50.512c0.031,0.715,0.641,1.271,1.357,1.238c0.715-0.031,1.271-0.639,1.238-1.355
			c-0.031-0.716-0.639-1.271-1.355-1.24C48.656,49.187,48.1,49.793,48.131,50.512z"/>
			<radialGradient id="SVGID_8_" cx="48.0527" cy="44.1451" r="1.0945" gradientUnits="userSpaceOnUse">
				<stop offset="0" style="stop-color:#FFFFFF"/>
				<stop offset="1" style="stop-color:#65ceff"/>
			</radialGradient>
			<path fill="url(#SVGID_8_)" d="M48.006,43.052c-0.604,0.027-1.072,0.538-1.047,1.143c0.027,0.604,0.539,1.071,1.143,1.044
			c0.604-0.026,1.07-0.537,1.045-1.141C49.119,43.492,48.607,43.025,48.006,43.052z"/>
			<radialGradient id="SVGID_9_" cx="59.2471" cy="53.0967" r="1.0939" gradientUnits="userSpaceOnUse">
				<stop offset="0" style="stop-color:#FFFFFF"/>
				<stop offset="1" style="stop-color:#65ceff"/>
			</radialGradient>
			<path fill="url(#SVGID_9_)" d="M59.199,52.004c-0.604,0.027-1.072,0.538-1.045,1.142c0.025,0.605,0.539,1.071,1.143,1.044
			c0.604-0.025,1.072-0.537,1.043-1.141C60.314,52.444,59.803,51.978,59.199,52.004z"/>
			<radialGradient id="SVGID_10_" cx="53.834" cy="46.7281" r="1.9245" gradientUnits="userSpaceOnUse">
				<stop offset="0" style="stop-color:#FFFFFF"/>
				<stop offset="1" style="stop-color:#65ceff"/>
			</radialGradient>
			<path fill="url(#SVGID_10_)" d="M53.918,48.649c1.06-0.047,1.887-0.946,1.84-2.006c-0.049-1.063-0.949-1.884-2.01-1.837
			c-1.061,0.047-1.885,0.946-1.838,2.008C51.959,47.875,52.859,48.697,53.918,48.649z"/>
			<radialGradient id="SVGID_11_" cx="61.0966" cy="60.2705" r="1.5283" gradientUnits="userSpaceOnUse">
				<stop offset="0" style="stop-color:#FFFFFF"/>
				<stop offset="1" style="stop-color:#65ceff"/>
			</radialGradient>
			<path fill="url(#SVGID_11_)" d="M59.568,60.338c0.039,0.843,0.754,1.495,1.596,1.458c0.842-0.038,1.496-0.752,1.461-1.593
			c-0.039-0.844-0.756-1.496-1.598-1.458C60.187,58.781,59.531,59.496,59.568,60.338z"/>
		</g>
	</g>
	<g id="rzs">
	</g>
	<g id="borelioza">
	</g>
	<g id="urazy">
	</g>
	<g id="obrzeki">
	</g>
	<g id="stopa_cukrzycowa">
	</g>
	<g id="trudno_gojce_si_rany">
	</g>
	<g id="zapalenie_koci_i_szpiku">
	</g>
	<g id="choroby_serca">
	</g>
	<g id="uraz_rdzenia_krgowego">
	</g>
	<g id="rtg">
	</g>
	<g id="astma">
	</g>
</svg>
