<?xml version="1.0" encoding="utf-8"?>
<!-- Generator: Adobe Illustrator 24.0.1, SVG Export Plug-In . SVG Version: 6.00 Build 0)  -->
<svg version="1.1"
	xmlns="http://www.w3.org/2000/svg"
	xmlns:xlink="http://www.w3.org/1999/xlink" x="0px" y="0px" viewBox="0 0 100 100" enable-background="new 0 0 100 100" xml:space="preserve">
	<g id="urazy_sportowe">

		<linearGradient id="SVGID_1_" gradientUnits="userSpaceOnUse" x1="517.7369" y1="-308.5801" x2="615.2401" y2="-308.5801" gradientTransform="matrix(0.2575 0.9663 -0.9663 0.2575 -394.0591 -417.037)">
			<stop offset="0" style="stop-color:#FFFFFF"/>
			<stop offset="1" style="stop-color:#65ceff"/>
		</linearGradient>
		<path opacity="0.5" fill="url(#SVGID_1_)" d="M62.07,97.188c-12.117,3.251-25.45,1.511-36.359-4.735
		c-5.456-3.108-10.303-7.298-14.166-12.271c-3.87-4.969-6.738-10.719-8.422-16.807c-1.64-6.099-2.093-12.524-1.277-18.798
		c0.806-6.275,2.867-12.387,6.018-17.885c3.157-5.493,7.401-10.365,12.427-14.239c5.021-3.881,10.824-6.747,16.955-8.418
		C43.38,2.38,49.846,1.917,56.163,2.732c6.317,0.805,12.474,2.874,18.013,6.041c5.526,3.187,10.434,7.458,14.318,12.53
		c3.876,5.077,6.721,10.929,8.362,17.094c1.577,6.183,1.946,12.664,1.044,18.96c-0.917,6.295-3.12,12.372-6.367,17.794
		C85.028,86.008,74.22,94.073,62.07,97.188z M62.018,96.995c6.013-1.666,11.689-4.5,16.593-8.324
		c4.894-3.838,8.976-8.665,11.995-14.057c6.039-10.808,7.601-23.893,4.316-35.703c-3.161-11.847-11.139-22.266-21.739-28.426
		c-5.284-3.093-11.182-5.143-17.257-5.98C49.851,3.66,43.61,4.04,37.657,5.582c-5.945,1.57-11.584,4.298-16.485,8.023
		c-4.905,3.718-9.068,8.417-12.184,13.739C5.879,32.67,3.822,38.612,2.986,44.729c-0.845,6.117-0.455,12.4,1.104,18.389
		c1.557,5.989,4.282,11.679,8.019,16.633c3.729,4.958,8.452,9.175,13.812,12.339c5.369,3.146,11.362,5.251,17.543,6.092
		C49.646,99.011,55.986,98.591,62.018,96.995z"/>
	</g>
	<g id="regeneracja_po_operacjach">
	</g>
	<g id="migreny">
	</g>
	<g id="depresja">
	</g>
	<g id="autyzm">
	</g>
	<g id="reumatyzm">
	</g>
	<g id="schorzenia_skry">
	</g>
	<g id="poprawa_cery">
	</g>
	<g id="wzmocnienie_kondycji">
	</g>
	<g id="infekcje">
	</g>
	<g id="nowe_komorki_macierzyste">
	</g>
	<g id="spowolnienie_procesow_starzenia">
	</g>
	<g id="rany_po_oparzeniach">
	</g>
	<g id="rzs">
	</g>
	<g id="borelioza">
	</g>
	<g id="urazy">
	</g>
	<g id="obrzeki">
	</g>
	<g id="stopa_cukrzycowa">
	</g>
	<g id="trudno_gojce_si_rany">
	</g>
	<g id="zapalenie_koci_i_szpiku">
	</g>
	<g id="choroby_serca">
	</g>
	<g id="uraz_rdzenia_krgowego">
		<g>
			<radialGradient id="SVGID_2_" cx="51.8278" cy="57.4149" r="4.5953" gradientUnits="userSpaceOnUse">
				<stop offset="0" style="stop-color:#FFFFFF"/>
				<stop offset="1" style="stop-color:#65ceff"/>
			</radialGradient>
			<path fill="url(#SVGID_2_)" d="M46.106,59.957c0.047,0.308,0.313,0.526,0.615,0.526c0.032,0,0.063-0.001,0.096-0.007l4.801-0.74
			c0.226-0.035,0.414-0.189,0.49-0.405c0.078-0.213,0.033-0.452-0.118-0.623l-1.613-1.827l6.675-1.302
			c0.337-0.065,0.558-0.394,0.492-0.732c-0.066-0.337-0.395-0.554-0.731-0.49l-6.846,1.335c-0.398,0.082-0.728,0.374-0.862,0.771
			c-0.126,0.39-0.035,0.822,0.234,1.123l0.965,1.092l-3.677,0.567C46.287,59.299,46.055,59.616,46.106,59.957z"/>
			<radialGradient id="SVGID_3_" cx="50.4147" cy="64.9231" r="4.1037" gradientUnits="userSpaceOnUse">
				<stop offset="0" style="stop-color:#FFFFFF"/>
				<stop offset="1" style="stop-color:#65ceff"/>
			</radialGradient>
			<path fill="url(#SVGID_3_)" d="M51.028,62.854c-0.359-0.26-0.833-0.314-1.233-0.14c-0.409,0.173-0.697,0.556-0.751,1.001
			l-0.154,1.296l-2.768-2.282c-0.266-0.221-0.657-0.181-0.877,0.084c-0.219,0.266-0.181,0.658,0.084,0.877l3.647,3.008
			c0.175,0.144,0.415,0.183,0.628,0.099c0.21-0.086,0.359-0.279,0.386-0.505l0.299-2.435l4.444,3.284
			c0.111,0.08,0.24,0.12,0.369,0.12c0.191,0,0.379-0.088,0.501-0.253c0.204-0.275,0.146-0.666-0.131-0.87L51.028,62.854z"/>
			<radialGradient id="SVGID_5_" cx="50" cy="50" r="32.2697" gradientUnits="userSpaceOnUse">
				<stop offset="0" style="stop-color:#FFFFFF"/>
				<stop offset="1" style="stop-color:#65ceff"/>
			</radialGradient>
			<path fill="url(#SVGID_5_)" d="M82.751,66.994c-1.201-1.639-5.598-6.397-7.059-7.821c-0.615-0.601-1.077-1.468-1.524-2.305
			c-1.159-2.172-3.008-3.794-5.65-4.959l-0.739-0.325c-2.358-1.033-4.586-2.011-6.562-3.539c-0.665-0.514-1.439-0.758-2.188-0.995
			c-0.296-0.093-0.592-0.186-0.873-0.297c-0.194-0.077-0.388-0.159-0.581-0.239c-0.283-0.118-0.565-0.235-0.85-0.345
			c-0.321-0.122-0.396-0.208-0.351-0.614c0.151-1.365,0.379-2.521,0.911-3.527c0.498,0.28,1.002,0.404,1.507,0.373
			c0.823-0.057,1.589-0.534,2.278-1.42l0.203-0.259c0.33-0.418,0.671-0.85,0.957-1.342c0.31-0.531,0.631-1.234,0.371-1.955
			c-0.117-0.324-0.321-0.578-0.577-0.78c1.533-2.036,2.228-4.5,2.062-7.337c-0.282-4.82-2.925-8.271-6.73-8.786
			c-5.615-0.764-10.1,1.792-12.052,6.848c-0.561-0.114-1.138-0.116-1.665,0.148c-0.818,0.41-1.184,1.3-1.434,2.115
			c-0.049,0.16-0.105,0.316-0.161,0.476c-0.08,0.223-0.158,0.446-0.223,0.673c-0.268,0.936-0.209,1.729,0.176,2.361
			c0.227,0.373,0.553,0.667,0.973,0.88c-0.052,0.244-0.106,0.487-0.165,0.728c-0.042,0.174-0.092,0.275-0.126,0.33
			c-0.054-0.029-0.137-0.088-0.238-0.191c-0.597-0.607-1.201-1.207-1.806-1.807c-1.691-1.68-3.439-3.415-4.974-5.247
			c-2.899-3.463-6.612-6.354-11.352-8.847c-1.393-0.733-2.968-0.77-4.32-0.106c-1.307,0.642-2.204,1.857-2.461,3.332
			c-0.261,1.492-0.408,2.852-0.449,4.159c-0.135,4.25,0.762,8.498,2.665,12.626c1.425,3.096,2.757,6.275,3.932,9.084
			c0.671,1.603,0.648,3.336,0.565,4.976c-0.094,1.861-0.059,3.741-0.024,5.56c0.015,0.799,0.03,1.598,0.034,2.396
			c0.004,0.62-0.011,1.244-0.025,1.865c-0.031,1.362-0.063,2.77,0.087,4.167c0.354,3.269,0.805,6.578,1.241,9.776
			c0.179,1.313,0.358,2.623,0.53,3.936c0.063,0.48,0.474,0.83,0.945,0.83c0.042,0,0.083-0.004,0.126-0.008
			c0.522-0.068,0.891-0.548,0.822-1.071c-0.173-1.314-0.353-2.63-0.532-3.944c-0.434-3.187-0.883-6.481-1.234-9.725
			c-0.137-1.273-0.107-2.557-0.077-3.917c0.015-0.64,0.029-1.281,0.026-1.92c-0.004-0.806-0.02-1.613-0.035-2.421
			c-0.034-1.787-0.068-3.634,0.022-5.428c0.089-1.778,0.115-3.84-0.71-5.811c-1.182-2.821-2.52-6.019-3.96-9.145
			c-1.802-3.912-2.617-7.76-2.489-11.769c0.038-1.215,0.176-2.487,0.421-3.89c0.151-0.867,0.67-1.576,1.423-1.946
			c0.798-0.395,1.742-0.363,2.588,0.082c4.516,2.373,8.041,5.115,10.776,8.381c1.591,1.902,3.372,3.669,5.093,5.377
			c0.599,0.597,1.199,1.19,1.791,1.792c0.883,0.896,1.701,0.841,2.112,0.728c0.416-0.114,1.16-0.495,1.467-1.752
			c0.093-0.379,0.173-0.762,0.253-1.145l0.098-0.464c0.054-0.249,0.005-0.51-0.135-0.726c-0.14-0.213-0.36-0.362-0.611-0.412
			c-0.33-0.065-0.556-0.177-0.638-0.31c-0.092-0.151-0.081-0.458,0.029-0.843c0.055-0.188,0.121-0.373,0.187-0.562
			c0.065-0.182,0.13-0.366,0.187-0.552c0.254-0.828,0.433-0.952,0.466-0.969c0.035-0.02,0.249-0.087,1.083,0.21
			c0.24,0.084,0.503,0.069,0.731-0.038c0.228-0.109,0.405-0.307,0.489-0.545l0.18-0.507c1.579-4.43,5.268-6.588,10.12-5.93
			c2.905,0.393,4.852,3.079,5.081,7.005c0.162,2.786-0.605,5.03-2.347,6.862c-0.223,0.234-0.312,0.563-0.239,0.874
			c0.073,0.313,0.3,0.568,0.601,0.68c0.3,0.111,0.467,0.193,0.557,0.248c-0.029,0.071-0.08,0.179-0.171,0.337
			c-0.219,0.374-0.504,0.735-0.805,1.116l-0.212,0.271c-0.332,0.425-0.652,0.669-0.902,0.688c-0.321,0.013-0.688-0.278-0.951-0.534
			c-0.195-0.189-0.464-0.288-0.733-0.27c-0.272,0.02-0.522,0.153-0.689,0.368c-1.259,1.626-1.614,3.501-1.81,5.286
			c-0.14,1.243,0.417,2.169,1.567,2.606c0.267,0.103,0.53,0.214,0.793,0.323c0.205,0.086,0.408,0.169,0.614,0.253
			c0.323,0.128,0.662,0.235,1.003,0.343c0.616,0.195,1.199,0.38,1.595,0.685c2.162,1.672,4.603,2.74,6.965,3.776l0.735,0.321
			c2.235,0.987,3.785,2.333,4.735,4.113c0.491,0.92,1.049,1.963,1.876,2.771c1.536,1.501,5.784,6.13,6.852,7.585
			c0.313,0.425,0.911,0.516,1.334,0.206C82.971,68.018,83.063,67.42,82.751,66.994z"/>
			<radialGradient id="SVGID_6_" cx="65.3232" cy="72.8209" r="8.7047" gradientUnits="userSpaceOnUse">
				<stop offset="0" style="stop-color:#FFFFFF"/>
				<stop offset="1" style="stop-color:#65ceff"/>
			</radialGradient>
			<path fill="url(#SVGID_6_)" d="M72.082,72.131c-1.006-0.736-1.955-1.43-2.757-2.206c-0.718-0.691-1.342-1.484-2.001-2.323
			c-0.423-0.536-0.859-1.092-1.325-1.621c-1.083-1.23-1.709-1.969-2.674-1.927c-0.935,0.049-1.482,0.826-2.477,2.233
			c-0.172,0.24-0.303,0.494-0.399,0.691c-2.438,4.972-3.636,9.304-3.766,13.627c-0.017,0.526,0.398,0.968,0.925,0.984
			c0.011,0,0.021,0,0.03,0c0.514,0,0.938-0.408,0.953-0.926c0.122-4.043,1.258-8.125,3.571-12.844
			c0.073-0.147,0.148-0.295,0.244-0.43c0.37-0.523,0.781-1.107,1.023-1.355c0.27,0.223,0.741,0.761,1.136,1.207
			c0.43,0.491,0.851,1.023,1.256,1.539c0.672,0.854,1.364,1.736,2.175,2.518c0.896,0.866,1.899,1.598,2.96,2.373
			c0.473,0.346,0.964,0.705,1.47,1.094c0.417,0.32,1.017,0.242,1.34-0.177c0.32-0.418,0.241-1.018-0.177-1.339
			C73.071,72.853,72.568,72.484,72.082,72.131z"/>
			<radialGradient id="SVGID_7_" cx="33.8058" cy="39.7148" r="5.1147" gradientUnits="userSpaceOnUse">
				<stop offset="0" style="stop-color:#FFFFFF"/>
				<stop offset="1" style="stop-color:#65ceff"/>
			</radialGradient>
			<path fill="url(#SVGID_7_)" d="M38.02,39.478c-0.916-0.724-1.806-1.369-2.667-1.992c-1.264-0.915-2.457-1.779-3.448-2.698
			c-0.308-0.285-0.712-0.443-1.129-0.443c-0.034,0-0.068,0.002-0.103,0.004c-0.453,0.027-0.875,0.24-1.168,0.587l-0.082,0.099
			l-0.073,0.087c-0.503,0.599-0.522,1.466-0.044,2.084c0.719,0.93,1.456,2.216,2.169,3.459c0.759,1.323,1.544,2.693,2.384,3.777
			c0.315,0.411,0.802,0.646,1.314,0.646c0.048,0,0.096-0.002,0.146-0.005c0.563-0.05,1.063-0.383,1.325-0.885
			c0.08-0.139,0.475-0.688,0.736-1.048c0.555-0.77,0.904-1.26,1.081-1.6C38.832,40.842,38.646,39.972,38.02,39.478z M35.174,43.427
			c-1.546-2-2.982-5.205-4.553-7.238c0.052-0.06,0.103-0.122,0.155-0.184c1.752,1.624,3.952,2.988,6.214,4.774
			C36.735,41.267,35.399,42.997,35.174,43.427z"/>
			<radialGradient id="SVGID_8_" cx="44.9618" cy="46.1341" r="1.7081" gradientUnits="userSpaceOnUse">
				<stop offset="0" style="stop-color:#FFFFFF"/>
				<stop offset="1" style="stop-color:#65ceff"/>
			</radialGradient>
			<path fill="url(#SVGID_8_)" d="M46.259,44.514c-0.352-0.295-0.875-0.25-1.17,0.103c-0.561,0.671-1.088,1.349-1.566,2.02
			c-0.267,0.374-0.18,0.892,0.194,1.16c0.146,0.104,0.314,0.153,0.48,0.153c0.26,0,0.515-0.121,0.677-0.349
			c0.454-0.637,0.954-1.282,1.488-1.918C46.656,45.331,46.61,44.808,46.259,44.514z"/>
			<radialGradient id="SVGID_9_" cx="39.5174" cy="61.3777" r="2.2179" gradientUnits="userSpaceOnUse">
				<stop offset="0" style="stop-color:#FFFFFF"/>
				<stop offset="1" style="stop-color:#65ceff"/>
			</radialGradient>
			<path fill="url(#SVGID_9_)" d="M39.604,64.386c0.457-0.033,0.8-0.433,0.768-0.888c-0.05-0.679-0.075-1.35-0.075-1.997
			c0-0.751,0.034-1.5,0.1-2.228c0.042-0.458-0.294-0.861-0.751-0.903c-0.458-0.034-0.861,0.296-0.902,0.752
			c-0.071,0.776-0.107,1.577-0.107,2.379c0,0.688,0.027,1.4,0.079,2.117c0.032,0.436,0.396,0.77,0.828,0.77
			C39.562,64.388,39.583,64.388,39.604,64.386z"/>
			<radialGradient id="SVGID_10_" cx="40.6506" cy="69.9971" r="2.2918" gradientUnits="userSpaceOnUse">
				<stop offset="0" style="stop-color:#FFFFFF"/>
				<stop offset="1" style="stop-color:#65ceff"/>
			</radialGradient>
			<path fill="url(#SVGID_10_)" d="M41.957,71.91c-0.322-1.23-0.691-2.671-0.995-4.197c-0.089-0.448-0.526-0.747-0.976-0.652
			c-0.45,0.089-0.742,0.526-0.653,0.976c0.312,1.571,0.688,3.041,1.017,4.293c0.097,0.374,0.434,0.622,0.803,0.622
			c0.069,0,0.14-0.009,0.211-0.027C41.808,72.808,42.073,72.354,41.957,71.91z"/>
			<radialGradient id="SVGID_11_" cx="41.1563" cy="52.8839" r="2.3248" gradientUnits="userSpaceOnUse">
				<stop offset="0" style="stop-color:#FFFFFF"/>
				<stop offset="1" style="stop-color:#65ceff"/>
			</radialGradient>
			<path fill="url(#SVGID_11_)" d="M40.139,55.714c0.076,0.021,0.153,0.031,0.228,0.031c0.361,0,0.694-0.237,0.798-0.603
			c0.378-1.327,0.892-2.646,1.524-3.92c0.204-0.41,0.036-0.908-0.375-1.112c-0.41-0.204-0.909-0.035-1.113,0.376
			c-0.677,1.363-1.227,2.778-1.633,4.202C39.443,55.127,39.698,55.586,40.139,55.714z"/>
			<radialGradient id="SVGID_12_" cx="42.3285" cy="77.6051" r="1.6122" gradientUnits="userSpaceOnUse">
				<stop offset="0" style="stop-color:#FFFFFF"/>
				<stop offset="1" style="stop-color:#65ceff"/>
			</radialGradient>
			<path fill="url(#SVGID_12_)" d="M42.038,75.555c-0.451,0.088-0.744,0.523-0.657,0.974c0.18,0.928,0.261,1.68,0.247,2.296
			c-0.009,0.457,0.354,0.837,0.813,0.848c0.006,0,0.012,0,0.019,0c0.45,0,0.819-0.361,0.83-0.813
			c0.017-0.745-0.072-1.586-0.278-2.647C42.924,75.761,42.49,75.464,42.038,75.555z"/>
		</g>
	</g>
	<g id="rtg">
	</g>
	<g id="astma">
	</g>
</svg>
