<?xml version="1.0" encoding="utf-8"?>
<!-- Generator: Adobe Illustrator 24.0.1, SVG Export Plug-In . SVG Version: 6.00 Build 0)  -->
<svg version="1.1"
	xmlns="http://www.w3.org/2000/svg"
	xmlns:xlink="http://www.w3.org/1999/xlink" x="0px" y="0px" viewBox="0 0 100 100" enable-background="new 0 0 100 100" xml:space="preserve">
	<g id="urazy_sportowe">

		<linearGradient id="SVGID_1_" gradientUnits="userSpaceOnUse" x1="369.9283" y1="-231.5986" x2="467.4315" y2="-231.5986" gradientTransform="matrix(0.467 0.8843 -0.8843 0.467 -350.5211 -211.8721)">
			<stop offset="0" style="stop-color:#65ceff"/>
			<stop offset="1" style="stop-color:#65ceff"/>
		</linearGradient>
		<path opacity="0.5" fill="url(#SVGID_1_)" d="M71.904,92.645c-11.084,5.877-24.469,7.161-36.498,3.511
		c-6.012-1.81-11.673-4.81-16.55-8.795c-4.883-3.978-8.963-8.942-11.965-14.5C3.93,67.283,2.053,61.123,1.445,54.825
		C0.829,48.529,1.471,42.11,3.314,36.048c1.849-6.06,4.897-11.757,8.93-16.656c4.027-4.905,9.042-8.995,14.645-11.994
		c5.609-2.986,11.808-4.882,18.148-5.5c6.337-0.627,12.801,0.013,18.907,1.862c6.098,1.871,11.837,4.937,16.756,9.013
		c4.913,4.083,8.993,9.15,11.971,14.793c2.919,5.674,4.727,11.909,5.255,18.247c0.514,6.341-0.276,12.756-2.229,18.767
		C91.783,76.617,83.051,86.893,71.904,92.645z M71.811,92.468c5.489-2.968,10.387-6.999,14.313-11.821
		c3.912-4.834,6.812-10.451,8.55-16.383c3.47-11.884,2.069-24.987-3.772-35.764C85.173,17.659,75.068,9.287,63.359,5.652
		C57.517,3.818,51.31,3.138,45.202,3.68c-6.11,0.533-12.108,2.299-17.566,5.132c-5.444,2.859-10.331,6.778-14.275,11.504
		c-3.95,4.72-6.957,10.231-8.805,16.115c-1.84,5.886-2.518,12.137-1.965,18.287c0.544,6.151,2.328,12.188,5.186,17.677
		c2.856,5.489,6.784,10.427,11.534,14.42c4.743,3.999,10.289,7.054,16.221,8.94c5.936,1.867,12.248,2.579,18.461,2.017
		C60.203,97.198,66.288,95.372,71.811,92.468z"/>
	</g>
	<g id="regeneracja_po_operacjach">
	</g>
	<g id="migreny">
	</g>
	<g id="depresja">
	</g>
	<g id="autyzm">
	</g>
	<g id="reumatyzm">
	</g>
	<g id="schorzenia_skry">
	</g>
	<g id="poprawa_cery">
	</g>
	<g id="wzmocnienie_kondycji">
	</g>
	<g id="infekcje">
	</g>
	<g id="nowe_komorki_macierzyste">
	</g>
	<g id="spowolnienie_procesow_starzenia">
	</g>
	<g id="rany_po_oparzeniach">
	</g>
	<g id="rzs">
	</g>
	<g id="borelioza">
	</g>
	<g id="urazy">
		<g>
			<radialGradient id="SVGID_2_" cx="30.2939" cy="39.083" r="9.77" gradientUnits="userSpaceOnUse">
				<stop offset="0" style="stop-color:#FFFFFF"/>
				<stop offset="1" style="stop-color:#65ceff"/>
			</radialGradient>
			<path fill="url(#SVGID_2_)" d="M21.723,43.713h3.942v3.943c0,0.662,0.537,1.196,1.198,1.196h6.859c0.661,0,1.2-0.534,1.2-1.196
			v-3.943h3.942c0.664,0,1.199-0.536,1.199-1.2v-6.858c0-0.66-0.535-1.199-1.199-1.199h-3.942v-3.941c0-0.663-0.539-1.2-1.2-1.2
			h-6.859c-0.661,0-1.198,0.537-1.198,1.2v3.941h-3.942c-0.664,0-1.199,0.539-1.199,1.199v6.858
			C20.523,43.177,21.059,43.713,21.723,43.713z M22.762,36.695h2.903h2.238v-2.24v-2.902h4.779v2.902v2.24h2.24h2.902v4.778h-2.902
			h-2.24v2.239v2.901h-4.779v-2.901v-2.239h-2.238h-2.903V36.695z"/>
			<radialGradient id="SVGID_3_" cx="49.9999" cy="50" r="32.0261" gradientUnits="userSpaceOnUse">
				<stop offset="0" style="stop-color:#FFFFFF"/>
				<stop offset="1" style="stop-color:#65ceff"/>
			</radialGradient>
			<path fill="url(#SVGID_3_)" d="M79.349,58.206c-3.068-7.693-1.177-27.823-1.157-28.024c0.03-0.315-0.073-0.628-0.286-0.861
			c-0.212-0.233-0.513-0.365-0.828-0.365h-2.238v-9.628c0-0.619-0.502-1.121-1.12-1.121c-0.619,0-1.12,0.502-1.12,1.121v9.628
			H56.367v-9.628c0-0.619-0.502-1.121-1.119-1.121c-0.619,0-1.12,0.502-1.12,1.121v9.628h-1.792c-0.618,0-1.118,0.499-1.118,1.118
			c0,1.527-0.008,3.313-0.029,5.201c0,0.005,0,0.009,0,0.013c-0.071,6.991-0.296,15.395-0.83,17.454
			c-0.536,2.064-6.472,7.26-21.408,10.152c-0.526,0.104-0.905,0.563-0.905,1.1v1.738c-2.59,0.519-6.792,2.007-8.966,5.001
			c-1.169,1.61-1.574,3.405-1.202,5.339c0.596,3.097,4.479,4.519,8.487,4.519c0.562,0,1.123-0.037,1.681-0.092v0.173
			c0,0.619,0.5,1.121,1.119,1.121c3.884,0,7.856-0.745,12.062-1.534c4.654-0.872,9.466-1.774,14.669-1.774
			c3.511,0,6.795,0.412,10.042,1.255c2.432,0.633,4.626,0.955,6.527,0.955h0.002c3.753,0,6.486-1.225,8.121-3.636
			C83.855,72.237,81.717,64.145,79.349,58.206z M28.045,78.254c-3.923,0.445-7.61-0.736-7.969-2.606
			c-0.254-1.317,0.013-2.494,0.814-3.598c1.562-2.149,4.807-3.48,7.154-4.026V78.254z M77.269,59.034
			c0.074,0.186,0.139,0.365,0.21,0.55L59.324,40.908h16.049C75.259,47.229,75.56,54.749,77.269,59.034z M53.454,31.191h22.401
			c-0.123,1.506-0.316,4.237-0.425,7.478H57.148l-3.716-3.821C53.446,33.39,53.452,32.124,53.454,31.191z M40.812,78.061
			c-3.685,0.689-7.187,1.347-10.529,1.472V64.911c2.438-0.499,4.661-1.069,6.697-1.688l13.333,13.333
			C47.02,76.9,43.883,77.484,40.812,78.061z M66.5,77.575c-3.434-0.895-6.902-1.329-10.606-1.329c-0.896,0-1.774,0.034-2.644,0.08
			L39.372,62.449c4.822-1.686,8.313-3.642,10.501-5.526L71.362,78.41C69.909,78.314,68.283,78.039,66.5,77.575z M78.732,75.805
			c-0.91,1.343-2.358,2.178-4.313,2.5L51.435,55.319c0.556-0.703,0.927-1.384,1.091-2.016c0.553-2.131,0.776-9.35,0.868-15.282
			l25.692,26.427C80.429,69.517,80.325,73.457,78.732,75.805z"/>
		</g>
	</g>
	<g id="obrzeki">
	</g>
	<g id="stopa_cukrzycowa">
	</g>
	<g id="trudno_gojce_si_rany">
	</g>
	<g id="zapalenie_koci_i_szpiku">
	</g>
	<g id="choroby_serca">
	</g>
	<g id="uraz_rdzenia_krgowego">
	</g>
	<g id="rtg">
	</g>
	<g id="astma">
	</g>
</svg>
