<?xml version="1.0" encoding="utf-8"?>
<!-- Generator: Adobe Illustrator 24.0.1, SVG Export Plug-In . SVG Version: 6.00 Build 0)  -->
<svg version="1.1"
	xmlns="http://www.w3.org/2000/svg"
	xmlns:xlink="http://www.w3.org/1999/xlink" x="0px" y="0px" viewBox="0 0 100 100" enable-background="new 0 0 100 100" xml:space="preserve">
	<g id="urazy_sportowe">

		<linearGradient id="SVGID_1_" gradientUnits="userSpaceOnUse" x1="56.5427" y1="38.3391" x2="154.0458" y2="38.3391" gradientTransform="matrix(0.5164 0.8563 -0.8563 0.5164 28.39 -60.1643)">
			<stop offset="0" style="stop-color:#FFFFFF"/>
			<stop offset="1" style="stop-color:#65ceff"/>
		</linearGradient>
		<path opacity="0.5" fill="url(#SVGID_1_)" d="M74.433,90.908c-10.732,6.497-24.022,8.539-36.239,5.579
		c-6.105-1.466-11.928-4.14-17.023-7.841c-5.101-3.694-9.457-8.418-12.769-13.797C5.128,69.448,2.904,63.404,1.94,57.151
		C0.967,50.9,1.244,44.455,2.739,38.298c1.502-6.155,4.221-12.016,7.97-17.136c3.742-5.126,8.516-9.494,13.94-12.807
		C30.079,5.055,36.16,2.81,42.454,1.833c6.292-0.986,12.781-0.714,18.982,0.785c6.195,1.522,12.099,4.257,17.241,8.047
		c5.137,3.797,9.499,8.624,12.792,14.089c3.237,5.499,5.396,11.621,6.283,17.919c0.873,6.301,0.449,12.751-1.16,18.863
		C93.37,73.776,85.235,84.532,74.433,90.908z M74.33,90.736c5.311-3.275,9.973-7.578,13.618-12.615
		c3.632-5.049,6.208-10.822,7.606-16.842c2.79-12.062,0.646-25.064-5.798-35.492C83.421,15.289,72.858,7.505,60.961,4.54
		c-5.936-1.499-12.172-1.825-18.24-0.937c-6.07,0.88-11.958,2.983-17.246,6.122c-5.273,3.164-9.929,7.354-13.599,12.297
		C8.201,26.958,5.511,32.631,4.001,38.61c-1.503,5.981-1.824,12.261-0.923,18.369C3.97,63.09,6.094,69.015,9.259,74.333
		c3.164,5.318,7.366,10.025,12.334,13.742c4.962,3.723,10.673,6.458,16.702,8.005c6.032,1.527,12.375,1.879,18.546,0.965
		C63.009,96.118,68.982,93.949,74.33,90.736z"/>
	</g>
	<g id="regeneracja_po_operacjach">
	</g>
	<g id="migreny">
	</g>
	<g id="depresja">
	</g>
	<g id="autyzm">
	</g>
	<g id="reumatyzm">
	</g>
	<g id="schorzenia_skry">
		<g>
			<radialGradient id="SVGID_2_" cx="36.2047" cy="37.3465" r="4.5479" gradientUnits="userSpaceOnUse">
				<stop offset="0" style="stop-color:#FFFFFF"/>
				<stop offset="1" style="stop-color:#65ceff"/>
			</radialGradient>
			<path fill="url(#SVGID_2_)" d="M31.115,38.014c2.959-1.638,7.438-0.747,10.148,0.925c0.123,0.074,0.258,0.111,0.393,0.111
			c0.252,0,0.498-0.127,0.639-0.357c0.217-0.352,0.109-0.815-0.244-1.031c-3.149-1.941-8.166-2.892-11.662-0.96
			c-0.361,0.2-0.492,0.657-0.293,1.02C30.299,38.083,30.754,38.214,31.115,38.014z"/>
			<radialGradient id="SVGID_3_" cx="35.4016" cy="45.8236" r="5.3038" gradientUnits="userSpaceOnUse">
				<stop offset="0" style="stop-color:#FFFFFF"/>
				<stop offset="1" style="stop-color:#65ceff"/>
			</radialGradient>
			<path fill="url(#SVGID_3_)" d="M30.572,47.6c-0.086,0.405,0.174,0.803,0.578,0.888c0.053,0.012,0.105,0.016,0.156,0.016
			c0.348,0,0.658-0.242,0.733-0.596c0.146-0.686,1.291-1.654,2.168-1.619c0.074,0.002,0.148-0.018,0.221-0.039
			c1.014,0.448,2.143,0.814,3.443,0.814c1.221,0,2.59-0.319,4.152-1.189c0.361-0.202,0.49-0.659,0.289-1.021
			c-0.201-0.361-0.658-0.49-1.021-0.289c-3.303,1.842-5.449,0.754-7.525-0.298c-1.549-0.786-3.15-1.6-4.932-0.779
			c-0.377,0.173-0.543,0.618-0.369,0.995c0.174,0.375,0.617,0.54,0.996,0.367c0.92-0.424,1.799-0.139,3.018,0.453
			C31.551,45.83,30.76,46.702,30.572,47.6z"/>
			<radialGradient id="SVGID_5_" cx="60.0622" cy="37.3465" r="4.5484" gradientUnits="userSpaceOnUse">
				<stop offset="0" style="stop-color:#FFFFFF"/>
				<stop offset="1" style="stop-color:#65ceff"/>
			</radialGradient>
			<path fill="url(#SVGID_5_)" d="M54.609,39.05c0.135,0,0.271-0.037,0.393-0.111c2.713-1.67,7.189-2.563,10.15-0.925
			c0.361,0.2,0.818,0.069,1.02-0.293c0.199-0.362,0.068-0.819-0.293-1.02c-3.494-1.933-8.514-0.981-11.662,0.96
			c-0.354,0.217-0.463,0.68-0.246,1.031C54.113,38.923,54.357,39.05,54.609,39.05z"/>
			<radialGradient id="SVGID_6_" cx="60.8647" cy="45.8236" r="5.3035" gradientUnits="userSpaceOnUse">
				<stop offset="0" style="stop-color:#FFFFFF"/>
				<stop offset="1" style="stop-color:#65ceff"/>
			</radialGradient>
			<path fill="url(#SVGID_6_)" d="M66.807,44.849c0.375,0.173,0.822,0.008,0.994-0.367c0.174-0.377,0.01-0.822-0.367-0.995
			c-1.777-0.82-3.381-0.007-4.932,0.779c-2.074,1.054-4.223,2.14-7.527,0.298c-0.363-0.203-0.818-0.072-1.02,0.289
			c-0.203,0.362-0.072,0.819,0.289,1.021c1.563,0.87,2.932,1.191,4.15,1.189c1.303,0,2.432-0.366,3.445-0.814
			c0.072,0.021,0.146,0.041,0.221,0.039c0.852-0.041,2.022,0.934,2.168,1.621c0.074,0.353,0.385,0.594,0.732,0.594
			c0.051,0,0.104-0.004,0.156-0.016c0.404-0.086,0.664-0.484,0.578-0.889c-0.189-0.896-0.973-1.771-1.898-2.301
			C65.014,44.708,65.889,44.425,66.807,44.849z"/>
			<radialGradient id="SVGID_7_" cx="48.4296" cy="56.8797" r="3.6357" gradientUnits="userSpaceOnUse">
				<stop offset="0" style="stop-color:#FFFFFF"/>
				<stop offset="1" style="stop-color:#65ceff"/>
			</radialGradient>
			<path fill="url(#SVGID_7_)" d="M48.148,58.79c0.057,0.002,0.113,0.002,0.168,0.002c2.033,0,3.902-1.055,4.797-2.72
			c0.195-0.364,0.059-0.819-0.307-1.015c-0.365-0.197-0.818-0.06-1.016,0.306c-0.652,1.216-2.053,1.979-3.6,1.928
			c-1.412-0.04-2.572-0.747-3.104-1.89c-0.176-0.375-0.619-0.537-0.996-0.363c-0.377,0.174-0.539,0.621-0.365,0.996
			C44.504,57.702,46.156,58.733,48.148,58.79z"/>
			<radialGradient id="SVGID_8_" cx="48.5757" cy="70.0887" r="4.0746" gradientUnits="userSpaceOnUse">
				<stop offset="0" style="stop-color:#FFFFFF"/>
				<stop offset="1" style="stop-color:#65ceff"/>
			</radialGradient>
			<path fill="url(#SVGID_8_)" d="M52.605,68.405l-0.221,0.334c-0.682,1.039-1.221,1.861-3.479,1.861h-0.658
			c-2.258,0-2.797-0.822-3.48-1.861l-0.221-0.334c-0.232-0.342-0.699-0.432-1.041-0.199c-0.344,0.232-0.434,0.699-0.199,1.041
			l0.207,0.314c0.781,1.189,1.666,2.539,4.734,2.539h0.658c3.066,0,3.951-1.35,4.732-2.539l0.207-0.314
			c0.232-0.342,0.145-0.809-0.199-1.041C53.305,67.974,52.838,68.063,52.605,68.405z"/>
			<radialGradient id="SVGID_9_" cx="48.5772" cy="64.6543" r="5.4052" gradientUnits="userSpaceOnUse">
				<stop offset="0" style="stop-color:#FFFFFF"/>
				<stop offset="1" style="stop-color:#65ceff"/>
			</radialGradient>
			<path fill="url(#SVGID_9_)" d="M55.5,65.081c-1.115-2.184-2.631-3.486-4.055-3.486c-0.537,0-1.045,0.188-1.469,0.541
			c-0.691,0.578-0.91,0.668-1.4,0.783c-0.49-0.114-0.709-0.205-1.4-0.783c-0.424-0.354-0.932-0.541-1.469-0.541
			c-1.424,0-2.939,1.303-4.053,3.488c-0.182,0.355-0.053,0.789,0.293,0.99c2.348,1.356,4.904,1.641,6.637,1.641l0,0
			c2.533,0,4.955-0.604,6.644-1.654C55.559,65.854,55.678,65.429,55.5,65.081z M48.584,66.214L48.584,66.214
			c-1.902,0-3.731-0.387-5.232-1.098c0.85-1.392,1.766-2.022,2.355-2.022c0.186,0,0.352,0.062,0.506,0.191
			c0.955,0.799,1.361,0.945,2.197,1.135c0.109,0.024,0.223,0.024,0.332,0c0.779-0.178,1.199-0.299,2.199-1.135
			c0.154-0.131,0.316-0.191,0.504-0.191c0.592,0,1.512,0.635,2.365,2.035C52.404,65.815,50.51,66.214,48.584,66.214z"/>
			<radialGradient id="SVGID_10_" cx="38.7919" cy="50.5876" r="27.1132" gradientUnits="userSpaceOnUse">
				<stop offset="0" style="stop-color:#FFFFFF"/>
				<stop offset="1" style="stop-color:#65ceff"/>
			</radialGradient>
			<path fill="url(#SVGID_10_)" d="M58.996,73.399c-4.26,3.818-8.35,6.286-10.42,6.286c-3.246,0-11.105-5.981-16.172-12.31
			c-5.727-7.152-6.713-19.325-7.084-23.907c-0.025-0.298-0.047-0.552-0.066-0.785c0.115-0.316,0.228-0.633,0.353-0.964
			c4.91-13.117,14.438-17.416,19.018-19.482c0.728-0.33,1.357-0.613,1.857-0.879c0.549-0.291,0.758-0.973,0.467-1.521
			c-0.291-0.549-0.973-0.756-1.521-0.467c-0.436,0.232-1.035,0.503-1.729,0.816c-4.855,2.191-14.959,6.75-20.199,20.745
			c-0.135,0.362-0.262,0.71-0.385,1.055c-0.043,0.079-0.07,0.164-0.094,0.251c-2.297,6.424-2.711,9.947-3.019,12.564
			c-0.336,2.857-0.539,4.582-3.09,8.244c-0.354,0.51-0.229,1.211,0.281,1.566c0.197,0.137,0.42,0.201,0.642,0.201
			c0.356,0,0.705-0.168,0.924-0.482c2.871-4.125,3.125-6.281,3.476-9.266c0.201-1.7,0.451-3.805,1.279-6.91
			c0.715,5.945,2.42,14.742,7.133,20.627c4.414,5.516,13.102,13.153,17.928,13.153c3.854,0,9.621-4.798,11.922-6.86
			c0.463-0.416,0.502-1.127,0.088-1.589C60.17,73.022,59.459,72.983,58.996,73.399z"/>
			<radialGradient id="SVGID_11_" cx="59.5061" cy="33.0751" r="15.7679" gradientUnits="userSpaceOnUse">
				<stop offset="0" style="stop-color:#FFFFFF"/>
				<stop offset="1" style="stop-color:#65ceff"/>
			</radialGradient>
			<path fill="url(#SVGID_11_)" d="M45.769,18.521c14.746,2.459,26.572,19.446,26.154,23.881c-0.027,0.293-0.057,0.656-0.092,1.08
			c-0.105,1.279-0.248,3.033-0.516,5.114c-0.08,0.616,0.356,1.181,0.971,1.261c0.049,0.006,0.098,0.008,0.146,0.008
			c0.557,0,1.039-0.412,1.113-0.98c0.275-2.134,0.428-3.991,0.527-5.221c0.033-0.412,0.063-0.766,0.09-1.051
			c0.563-5.967-12.271-23.686-28.023-26.311c-0.617-0.104-1.193,0.311-1.295,0.924C44.744,17.839,45.158,18.419,45.769,18.521z"/>
			<radialGradient id="SVGID_12_" cx="70.4132" cy="67.8086" r="14.4698" gradientUnits="userSpaceOnUse">
				<stop offset="0" style="stop-color:#FFFFFF"/>
				<stop offset="1" style="stop-color:#65ceff"/>
			</radialGradient>
			<path fill="url(#SVGID_12_)" d="M82.947,79.802l-3.951-6.01c-0.043-0.064-0.1-0.111-0.156-0.156
			c-0.176-0.139-0.404-0.18-0.619-0.115c-0.063,0.02-0.127,0.036-0.184,0.074c-0.002,0-0.002,0-0.002,0.002l-0.234,0.152
			l-1.631-2.477c1.736-1.574,2.938-3.641,3.42-5.979c0.6-2.914,0.031-5.887-1.604-8.372c-2.066-3.144-5.551-5.019-9.314-5.019
			c-2.176,0-4.289,0.635-6.113,1.834c-2.486,1.635-4.186,4.14-4.787,7.055c-0.602,2.912-0.031,5.887,1.604,8.371
			c2.066,3.143,5.549,5.02,9.316,5.02c1.586,0,3.137-0.342,4.568-0.988l1.627,2.473L74.67,75.81c-0.002,0-0.002,0-0.004,0.002
			c-0.316,0.209-0.406,0.639-0.197,0.957l3.953,6.011c0.305,0.46,0.771,0.776,1.314,0.89c0.141,0.029,0.285,0.045,0.426,0.045
			c0.4,0,0.793-0.117,1.133-0.342l1.059-0.697C83.31,82.047,83.576,80.757,82.947,79.802z M68.691,72.798
			c-3.299,0-6.352-1.643-8.162-4.395c-1.43-2.176-1.93-4.781-1.402-7.332c0.525-2.553,2.016-4.746,4.191-6.178
			c1.598-1.051,3.449-1.608,5.354-1.608c3.297,0,6.348,1.644,8.158,4.396c1.432,2.176,1.932,4.779,1.404,7.332
			c-0.527,2.553-2.016,4.746-4.193,6.178C72.445,72.243,70.594,72.798,68.691,72.798z M74.189,72.72
			c0.207-0.118,0.412-0.24,0.613-0.371c0.195-0.129,0.377-0.273,0.563-0.412l1.568,2.383l-1.178,0.777L74.189,72.72z M81.594,81.521
			l-1.059,0.695c-0.318,0.209-0.748,0.121-0.957-0.197l-3.574-5.433l2.215-1.456l3.572,5.432
			C82.002,80.881,81.912,81.312,81.594,81.521z"/>
			<radialGradient id="SVGID_13_" cx="63.0998" cy="60.397" r="1.3275" gradientUnits="userSpaceOnUse">
				<stop offset="0" style="stop-color:#FFFFFF"/>
				<stop offset="1" style="stop-color:#65ceff"/>
			</radialGradient>
			<path fill="url(#SVGID_13_)" d="M64.209,59.667c-0.404-0.611-1.225-0.781-1.84-0.381c-0.611,0.404-0.781,1.228-0.377,1.84
			c0.402,0.612,1.225,0.783,1.838,0.381C64.441,61.104,64.611,60.28,64.209,59.667z"/>
			<radialGradient id="SVGID_14_" cx="65.3571" cy="66.2687" r="1.3274" gradientUnits="userSpaceOnUse">
				<stop offset="0" style="stop-color:#FFFFFF"/>
				<stop offset="1" style="stop-color:#65ceff"/>
			</radialGradient>
			<path fill="url(#SVGID_14_)" d="M64.627,65.16c-0.611,0.401-0.781,1.225-0.379,1.839c0.404,0.611,1.227,0.781,1.84,0.379
			c0.611-0.402,0.781-1.227,0.377-1.84C66.064,64.927,65.24,64.757,64.627,65.16z"/>
			<radialGradient id="SVGID_15_" cx="68.6797" cy="59.4957" r="1.3273" gradientUnits="userSpaceOnUse">
				<stop offset="0" style="stop-color:#FFFFFF"/>
				<stop offset="1" style="stop-color:#65ceff"/>
			</radialGradient>
			<path fill="url(#SVGID_15_)" d="M67.951,58.388c-0.613,0.402-0.783,1.227-0.381,1.838c0.404,0.611,1.227,0.781,1.84,0.379
			c0.611-0.402,0.781-1.225,0.379-1.837C69.387,58.155,68.562,57.983,67.951,58.388z"/>
			<radialGradient id="SVGID_16_" cx="71.4766" cy="67.1474" r="1.3276" gradientUnits="userSpaceOnUse">
				<stop offset="0" style="stop-color:#FFFFFF"/>
				<stop offset="1" style="stop-color:#65ceff"/>
			</radialGradient>
			<path fill="url(#SVGID_16_)" d="M70.748,66.038c-0.613,0.402-0.783,1.227-0.381,1.838c0.402,0.615,1.227,0.783,1.84,0.379
			c0.611-0.4,0.781-1.225,0.379-1.838C72.184,65.806,71.359,65.636,70.748,66.038z"/>
			<radialGradient id="SVGID_17_" cx="74.132" cy="61.3765" r="1.3274" gradientUnits="userSpaceOnUse">
				<stop offset="0" style="stop-color:#FFFFFF"/>
				<stop offset="1" style="stop-color:#65ceff"/>
			</radialGradient>
			<path fill="url(#SVGID_17_)" d="M73.402,60.269c-0.613,0.403-0.781,1.226-0.379,1.836c0.402,0.615,1.225,0.783,1.838,0.381
			c0.611-0.404,0.783-1.227,0.379-1.838C74.838,60.034,74.014,59.864,73.402,60.269z"/>
		</g>
	</g>
	<g id="poprawa_cery">
	</g>
	<g id="wzmocnienie_kondycji">
	</g>
	<g id="infekcje">
	</g>
	<g id="nowe_komorki_macierzyste">
	</g>
	<g id="spowolnienie_procesow_starzenia">
	</g>
	<g id="rany_po_oparzeniach">
	</g>
	<g id="rzs">
	</g>
	<g id="borelioza">
	</g>
	<g id="urazy">
	</g>
	<g id="obrzeki">
	</g>
	<g id="stopa_cukrzycowa">
	</g>
	<g id="trudno_gojce_si_rany">
	</g>
	<g id="zapalenie_koci_i_szpiku">
	</g>
	<g id="choroby_serca">
	</g>
	<g id="uraz_rdzenia_krgowego">
	</g>
	<g id="rtg">
	</g>
	<g id="astma">
	</g>
</svg>
