<?xml version="1.0" encoding="utf-8"?>
<!-- Generator: Adobe Illustrator 24.0.1, SVG Export Plug-In . SVG Version: 6.00 Build 0)  -->
<svg version="1.1"
	xmlns="http://www.w3.org/2000/svg"
	xmlns:xlink="http://www.w3.org/1999/xlink" x="0px" y="0px" viewBox="0 0 100 100" enable-background="new 0 0 100 100" xml:space="preserve">
	<g id="urazy_sportowe">
		<linearGradient id="SVGID_1_" gradientUnits="userSpaceOnUse" x1="1.4969" y1="50.5016" x2="99" y2="50.5016">
			<stop offset="0" style="stop-color:#FFFFFF"/>
			<stop offset="1" style="stop-color:#65ceff"/>
		</linearGradient>
		<path opacity="0.5" fill="url(#SVGID_1_)" d="M98.1,50.752c0.021,12.545-5.093,24.981-13.938,33.914
		c-4.408,4.471-9.705,8.076-15.505,10.528c-5.798,2.46-12.093,3.75-18.409,3.81c-6.316,0.014-12.64-1.203-18.493-3.606
		c-5.855-2.395-11.231-5.96-15.732-10.42c-4.495-4.465-8.11-9.82-10.559-15.674c-2.457-5.852-3.732-12.196-3.768-18.551
		C1.676,44.397,2.894,38.03,5.308,32.136c2.405-5.897,5.989-11.313,10.475-15.85c4.502-4.519,9.893-8.162,15.795-10.608
		C37.482,3.24,43.868,1.998,50.248,2c6.38,0.068,12.738,1.381,18.59,3.873c5.847,2.507,11.151,6.2,15.554,10.734
		C93.209,25.688,98.218,38.209,98.1,50.752z M97.9,50.752c-0.062-6.239-1.339-12.453-3.77-18.176
		c-2.448-5.717-6.061-10.904-10.494-15.211C74.747,8.746,62.506,3.867,50.248,4C37.987,4.004,25.865,9.029,17.183,17.686
		c-4.349,4.31-7.849,9.481-10.222,15.135C4.58,38.474,3.34,44.602,3.297,50.752c-0.014,6.149,1.17,12.3,3.507,17.995
		c2.329,5.697,5.798,10.93,10.138,15.311c4.346,4.376,9.557,7.894,15.253,10.277c5.694,2.391,11.865,3.633,18.053,3.669
		c6.188,0.037,12.388-1.131,18.137-3.465c5.751-2.326,11.042-5.805,15.48-10.169c4.423-4.377,7.999-9.626,10.404-15.383
		C96.662,63.225,97.889,56.991,97.9,50.752z"/>
	</g>
	<g id="regeneracja_po_operacjach">
		<radialGradient id="SVGID_2_" cx="50" cy="50" r="33.3887" gradientUnits="userSpaceOnUse">
			<stop offset="0" style="stop-color:#FFFFFF"/>
			<stop offset="1" style="stop-color:#65ceff"/>
		</radialGradient>
		<path fill="url(#SVGID_2_)" d="M85.83,50.467h-5.894c1.977-3.921,3.206-8.06,3.206-12.3c0-9.682-7.877-17.56-17.56-17.56
		c-6.642,0-12.61,3.713-15.59,9.472c-2.981-5.759-8.951-9.472-15.592-9.472c-9.682,0-17.559,7.878-17.559,17.56
		c0,4.695,1.111,9.057,2.922,13.048H14.17c-0.622,0-1.125,0.504-1.125,1.125c0,0.621,0.503,1.125,1.125,1.125h6.711
		c8.507,15.856,27.585,25.311,28.62,25.813c0.156,0.076,0.324,0.114,0.492,0.114c0.2,0,0.399-0.054,0.576-0.159
		c1.016-0.605,19.47-11.753,28.14-26.517h7.121c0.621,0,1.125-0.504,1.125-1.125C86.955,50.971,86.451,50.467,85.83,50.467z
		 M19.092,38.167c0-8.441,6.867-15.31,15.309-15.31c6.599,0,12.437,4.203,14.525,10.459c0.153,0.46,0.583,0.769,1.067,0.769
		c0.484,0,0.914-0.31,1.067-0.769c2.089-6.256,7.925-10.459,14.523-10.459c8.442,0,15.31,6.868,15.31,15.31
		c0,4.211-1.371,8.361-3.532,12.3H57.738c-0.453,0-0.862,0.271-1.037,0.689l-2.972,7.085l-3.227-10.282
		c-0.135-0.429-0.512-0.736-0.959-0.782c-0.445-0.047-0.878,0.179-1.098,0.572l-1.995,3.584h-3.21l-3.762-14.761
		c-0.128-0.505-0.572-0.85-1.107-0.848c-0.521,0.009-0.968,0.373-1.081,0.881l-3.781,17.012l-1.658-1.996
		c-0.213-0.258-0.531-0.406-0.865-0.406H22.31C20.331,47.227,19.092,42.86,19.092,38.167z M49.94,76.978
		c-3.104-1.622-18.644-10.234-26.412-23.513h6.93l2.786,3.354c0.274,0.331,0.712,0.475,1.13,0.375c0.417-0.101,0.74-0.43,0.833-0.85
		l3.256-14.646l2.813,11.037c0.127,0.499,0.576,0.848,1.09,0.848h4.746c0.408,0,0.785-0.222,0.983-0.578l1.044-1.875l3.364,10.72
		c0.142,0.451,0.549,0.765,1.021,0.787c0.018,0,0.035,0.001,0.052,0.001c0.452,0,0.861-0.271,1.037-0.689l3.872-9.231h17.539
		C68.092,65.196,52.949,75.091,49.94,76.978z"/>
	</g>
	<g id="migreny">
	</g>
	<g id="depresja">
	</g>
	<g id="autyzm">
	</g>
	<g id="reumatyzm">
	</g>
	<g id="schorzenia_skry">
	</g>
	<g id="poprawa_cery">
	</g>
	<g id="wzmocnienie_kondycji">
	</g>
	<g id="infekcje">
	</g>
	<g id="nowe_komorki_macierzyste">
	</g>
	<g id="spowolnienie_procesow_starzenia">
	</g>
	<g id="rany_po_oparzeniach">
	</g>
	<g id="rzs">
	</g>
	<g id="borelioza">
	</g>
	<g id="urazy">
	</g>
	<g id="obrzeki">
	</g>
	<g id="stopa_cukrzycowa">
	</g>
	<g id="trudno_gojce_si_rany">
	</g>
	<g id="zapalenie_koci_i_szpiku">
	</g>
	<g id="choroby_serca">
	</g>
	<g id="uraz_rdzenia_krgowego">
	</g>
	<g id="rtg">
	</g>
	<g id="astma">
	</g>
</svg>
