<?xml version="1.0" encoding="utf-8"?>
<!-- Generator: Adobe Illustrator 24.0.1, SVG Export Plug-In . SVG Version: 6.00 Build 0)  -->
<svg version="1.1"
	xmlns="http://www.w3.org/2000/svg"
	xmlns:xlink="http://www.w3.org/1999/xlink" x="0px" y="0px" viewBox="0 0 100 100" enable-background="new 0 0 100 100" xml:space="preserve">
	<g id="urazy_sportowe">

		<linearGradient id="SVGID_1_" gradientUnits="userSpaceOnUse" x1="53.0019" y1="-310.5311" x2="150.505" y2="-310.5311" gradientTransform="matrix(-0.8159 0.5782 -0.5782 -0.8159 -46.8456 -262.4882)">
			<stop offset="0" style="stop-color:#FFFFFF"/>
			<stop offset="1" style="stop-color:#65ceff"/>
		</linearGradient>
		<path opacity="0.5" fill="url(#SVGID_1_)" d="M10.499,77.17C3.228,66.947,0.211,53.844,2.262,41.441
		c1.011-6.197,3.248-12.201,6.563-17.555c3.308-5.359,7.698-10.052,12.817-13.752c5.145-3.663,11.009-6.327,17.174-7.75
		c6.162-1.431,12.61-1.631,18.861-0.595c6.249,1.044,12.295,3.323,17.678,6.684c5.388,3.353,10.097,7.793,13.8,12.957
		c3.691,5.173,6.379,11.072,7.818,17.276c1.447,6.202,1.655,12.693,0.618,18.989c-1.06,6.29-3.352,12.38-6.753,17.788
		c-3.408,5.403-7.9,10.109-13.107,13.796c-5.245,3.633-11.191,6.239-17.407,7.588c-6.22,1.335-12.683,1.389-18.897,0.235
		C28.982,94.791,17.655,87.472,10.499,77.17z M10.662,77.055c3.658,5.055,8.293,9.387,13.586,12.65
		c5.303,3.249,11.25,5.392,17.357,6.342c12.235,1.892,25.043-1.205,34.968-8.401c10.002-7.092,16.986-18.202,19.064-30.285
		c1.056-6.031,0.922-12.273-0.411-18.259c-1.325-5.988-3.857-11.706-7.378-16.748c-3.544-5.025-8.066-9.36-13.266-12.654
		c-5.194-3.301-11.05-5.565-17.125-6.63C51.382,2.013,45.095,2.156,39.07,3.505c-6.028,1.341-11.781,3.896-16.85,7.445
		c-5.07,3.547-9.454,8.085-12.794,13.314c-3.347,5.223-5.653,11.121-6.75,17.248c-1.077,6.129-0.961,12.479,0.406,18.566
		C4.46,66.162,7.064,71.958,10.662,77.055z"/>
	</g>
	<g id="regeneracja_po_operacjach">
	</g>
	<g id="migreny">
	</g>
	<g id="depresja">
	</g>
	<g id="autyzm">
	</g>
	<g id="reumatyzm">
	</g>
	<g id="schorzenia_skry">
	</g>
	<g id="poprawa_cery">
	</g>
	<g id="wzmocnienie_kondycji">
		<g>
			<radialGradient id="SVGID_2_" cx="52.2632" cy="49.9998" r="30.0293" gradientUnits="userSpaceOnUse">
				<stop offset="0" style="stop-color:#FFFFFF"/>
				<stop offset="1" style="stop-color:#65ceff"/>
			</radialGradient>
			<path fill="url(#SVGID_2_)" d="M80.787,60.334c-0.556-0.061-1.07,0.331-1.136,0.893l-1.509,12.486
			c-0.216,1.791-1.248,3.313-2.83,4.178c-1.591,0.868-3.439,0.911-5.072,0.121c-4.401-2.13-10.006-2.794-17.103-3.632l-2.423-0.287
			c-10.916-1.318-25.967-7.345-25.832-11.473c0.602-18.305,13.262-32.226,13.39-32.365c0.044-0.048,0.082-0.096,0.116-0.149
			c4.321-6.869,11.268-8.512,16.332-8.682c1.076-0.042,2.082,0.418,2.765,1.245c0.677,0.821,0.929,1.889,0.69,2.927l-0.448,1.971
			c-0.199,0.864-0.723,1.6-1.475,2.069c-0.727,0.451-1.578,0.594-2.4,0.401c-0.089-0.021-0.172-0.044-0.245-0.071
			c-1.469-0.546-2.777-0.828-4-0.863c-2.88-0.077-5.023,1.274-6.741,2.612c-0.121,0.096-0.22,0.216-0.29,0.357
			c-4.165,8.487-3.686,14.104-3.301,18.618c0.163,1.904,0.304,3.548,0.106,5.192c-0.068,0.561,0.332,1.07,0.892,1.138
			c0.559,0.063,1.07-0.332,1.137-0.893c0.224-1.854,0.067-3.679-0.097-5.611c-0.378-4.444-0.808-9.475,2.995-17.332
			c1.964-1.495,3.494-2.09,5.241-2.037c0.995,0.028,2.09,0.268,3.348,0.736c0.149,0.054,0.314,0.104,0.49,0.144
			c1.353,0.32,2.755,0.086,3.945-0.656c1.219-0.76,2.065-1.946,2.386-3.348l0.45-1.971c0.382-1.661-0.022-3.368-1.106-4.684
			c-1.089-1.32-2.702-2.056-4.41-1.987c-5.539,0.184-13.142,1.994-17.944,9.557c-1.122,1.232-13.257,15.015-13.867,33.615
			c-0.218,6.594,18.139,12.423,27.63,13.568l2.427,0.288c6.905,0.816,12.359,1.461,16.452,3.441
			c1.061,0.515,2.189,0.771,3.314,0.771c1.245,0,2.484-0.313,3.628-0.938c2.169-1.184,3.582-3.271,3.881-5.727l1.507-12.486
			C81.749,60.911,81.348,60.401,80.787,60.334z"/>
			<radialGradient id="SVGID_3_" cx="62.6977" cy="55.1866" r="14.499" gradientUnits="userSpaceOnUse">
				<stop offset="0" style="stop-color:#FFFFFF"/>
				<stop offset="1" style="stop-color:#65ceff"/>
			</radialGradient>
			<path fill="url(#SVGID_3_)" d="M81.584,55.354c-0.437-0.141-10.094-3.144-15.906,2.81c-1.575-3.722-4.669-6.762-8.406-8.155
			c-4.398-1.64-9.269-0.917-13.712,2.034c-0.471,0.313-0.6,0.946-0.287,1.416c0.313,0.471,0.945,0.598,1.417,0.287
			c4.98-3.306,9.204-2.815,11.866-1.823c3.711,1.385,6.688,4.661,7.768,8.552c0.106,0.379,0.421,0.665,0.81,0.734
			c0.059,0.011,0.118,0.015,0.176,0.015c0.328,0,0.641-0.158,0.835-0.433c4.688-6.623,14.717-3.521,14.817-3.49
			c0.536,0.171,1.112-0.124,1.284-0.663C82.416,56.102,82.121,55.526,81.584,55.354z"/>
			<radialGradient id="SVGID_5_" cx="58.2105" cy="34.3148" r="3.7633" gradientUnits="userSpaceOnUse">
				<stop offset="0" style="stop-color:#FFFFFF"/>
				<stop offset="1" style="stop-color:#65ceff"/>
			</radialGradient>
			<path fill="url(#SVGID_5_)" d="M54.309,34.899c-0.353-0.124-0.743,0.062-0.869,0.415c-0.124,0.354,0.063,0.745,0.417,0.871
			c0.027,0.01,1.198,0.408,2.761,0.408c1.982,0,4.596-0.643,6.308-3.529c0.191-0.323,0.085-0.742-0.239-0.934
			c-0.323-0.191-0.742-0.085-0.933,0.237C59.268,36.56,54.522,34.974,54.309,34.899z"/>
			<radialGradient id="SVGID_6_" cx="20.7237" cy="65.131" r="4.5588" gradientUnits="userSpaceOnUse">
				<stop offset="0" style="stop-color:#FFFFFF"/>
				<stop offset="1" style="stop-color:#65ceff"/>
			</radialGradient>
			<path fill="url(#SVGID_6_)" d="M23.394,69.554c-6.021-3.396-4.068-8.967-3.982-9.202c0.129-0.351-0.051-0.743-0.403-0.875
			c-0.354-0.131-0.743,0.05-0.876,0.401c-0.025,0.069-2.463,6.888,4.592,10.862c0.107,0.06,0.223,0.088,0.334,0.088
			c0.239,0,0.471-0.125,0.595-0.347C23.84,70.153,23.722,69.737,23.394,69.554z"/>
		</g>
	</g>
	<g id="infekcje">
	</g>
	<g id="nowe_komorki_macierzyste">
	</g>
	<g id="spowolnienie_procesow_starzenia">
	</g>
	<g id="rany_po_oparzeniach">
	</g>
	<g id="rzs">
	</g>
	<g id="borelioza">
	</g>
	<g id="urazy">
	</g>
	<g id="obrzeki">
	</g>
	<g id="stopa_cukrzycowa">
	</g>
	<g id="trudno_gojce_si_rany">
	</g>
	<g id="zapalenie_koci_i_szpiku">
	</g>
	<g id="choroby_serca">
	</g>
	<g id="uraz_rdzenia_krgowego">
	</g>
	<g id="rtg">
	</g>
	<g id="astma">
	</g>
</svg>
