<?xml version="1.0" encoding="utf-8"?>
<!-- Generator: Adobe Illustrator 24.0.1, SVG Export Plug-In . SVG Version: 6.00 Build 0)  -->
<svg version="1.1"
	xmlns="http://www.w3.org/2000/svg"
	xmlns:xlink="http://www.w3.org/1999/xlink" x="0px" y="0px" viewBox="0 0 100 100" enable-background="new 0 0 100 100" xml:space="preserve">
	<g id="urazy_sportowe">

		<linearGradient id="SVGID_1_" gradientUnits="userSpaceOnUse" x1="97.3665" y1="13.3948" x2="194.8697" y2="13.3948" gradientTransform="matrix(0.2575 0.9663 -0.9663 0.2575 25.3057 -94.7943)">
			<stop offset="0" style="stop-color:#FFFFFF"/>
			<stop offset="1" style="stop-color:#65ceff"/>
		</linearGradient>
		<path opacity="0.5" fill="url(#SVGID_1_)" d="M62.07,96.148c-12.117,3.251-25.45,1.511-36.359-4.735
		c-5.456-3.108-10.303-7.298-14.166-12.271c-3.87-4.969-6.738-10.719-8.422-16.807c-1.64-6.099-2.093-12.524-1.277-18.798
		c0.806-6.275,2.867-12.387,6.018-17.885c3.157-5.493,7.401-10.365,12.427-14.239c5.021-3.881,10.824-6.747,16.955-8.418
		c6.135-1.656,12.601-2.119,18.918-1.305c6.317,0.805,12.474,2.874,18.013,6.041c5.526,3.187,10.434,7.458,14.318,12.53
		c3.876,5.077,6.721,10.929,8.362,17.094c1.577,6.183,1.946,12.664,1.044,18.96c-0.917,6.295-3.12,12.372-6.367,17.794
		C85.028,84.967,74.22,93.032,62.07,96.148z M62.018,95.954c6.013-1.666,11.689-4.5,16.593-8.324
		c4.894-3.838,8.976-8.665,11.995-14.057c6.039-10.808,7.601-23.893,4.316-35.703C91.762,26.024,83.784,15.605,73.183,9.445
		c-5.284-3.093-11.182-5.143-17.257-5.98C49.851,2.62,43.61,3,37.657,4.542c-5.945,1.57-11.584,4.298-16.485,8.023
		c-4.905,3.718-9.068,8.417-12.184,13.739C5.879,31.63,3.822,37.571,2.986,43.689c-0.845,6.117-0.455,12.4,1.104,18.389
		c1.557,5.989,4.282,11.679,8.019,16.633c3.729,4.958,8.452,9.175,13.812,12.339c5.369,3.146,11.362,5.251,17.543,6.092
		C49.646,97.97,55.986,97.55,62.018,95.954z"/>
	</g>
	<g id="regeneracja_po_operacjach">
	</g>
	<g id="migreny">
	</g>
	<g id="depresja">
	</g>
	<g id="autyzm">
	</g>
	<g id="reumatyzm">
	</g>
	<g id="schorzenia_skry">
	</g>
	<g id="poprawa_cery">
	</g>
	<g id="wzmocnienie_kondycji">
	</g>
	<g id="infekcje">
		<g>
			<radialGradient id="SVGID_2_" cx="77.3672" cy="71.6343" r="3.7307" gradientUnits="userSpaceOnUse">
				<stop offset="0" style="stop-color:#FFFFFF"/>
				<stop offset="1" style="stop-color:#65ceff"/>
			</radialGradient>
			<path fill="url(#SVGID_2_)" d="M78.427,71.634l2.449-2.449c0.293-0.293,0.293-0.768,0-1.061c-0.293-0.293-0.768-0.293-1.061,0
			l-2.449,2.449l-2.449-2.449c-0.293-0.293-0.768-0.293-1.061,0c-0.293,0.293-0.293,0.768,0,1.061l2.449,2.449l-2.45,2.451
			c-0.293,0.293-0.293,0.768,0,1.061c0.146,0.146,0.338,0.219,0.529,0.219c0.192,0,0.385-0.072,0.531-0.219l2.45-2.451l2.452,2.451
			c0.146,0.146,0.338,0.219,0.53,0.219c0.192,0,0.384-0.072,0.53-0.219c0.293-0.293,0.293-0.768,0-1.061L78.427,71.634z"/>
			<radialGradient id="SVGID_3_" cx="62.2036" cy="68.4688" r="3.4827" gradientUnits="userSpaceOnUse">
				<stop offset="0" style="stop-color:#FFFFFF"/>
				<stop offset="1" style="stop-color:#65ceff"/>
			</radialGradient>
			<path fill="url(#SVGID_3_)" d="M59.419,71.952c0.384,0,0.698-0.313,0.698-0.697c0-2.688,2.185-4.875,4.874-4.875
			c0.382,0,0.694-0.314,0.694-0.697c0-0.385-0.313-0.697-0.694-0.697c-3.456,0-6.27,2.814-6.27,6.27
			C58.722,71.64,59.035,71.952,59.419,71.952z"/>
			<radialGradient id="SVGID_5_" cx="48.4869" cy="30.1719" r="2.8668" gradientUnits="userSpaceOnUse">
				<stop offset="0" style="stop-color:#FFFFFF"/>
				<stop offset="1" style="stop-color:#65ceff"/>
			</radialGradient>
			<path fill="url(#SVGID_5_)" d="M47.313,26.759c-0.299-0.098-0.62,0.066-0.718,0.365c-0.873,2.688,0.604,5.588,3.288,6.461
			c0.298,0.098,0.62-0.066,0.72-0.365c0.097-0.297-0.067-0.621-0.366-0.719c-2.089-0.68-3.239-2.934-2.558-5.025
			C47.776,27.177,47.609,26.857,47.313,26.759z"/>
			<radialGradient id="SVGID_6_" cx="30.0488" cy="43.4143" r="2.281" gradientUnits="userSpaceOnUse">
				<stop offset="0" style="stop-color:#FFFFFF"/>
				<stop offset="1" style="stop-color:#65ceff"/>
			</radialGradient>
			<path fill="url(#SVGID_6_)" d="M31.728,41.864c0.251-0.027,0.431-0.256,0.404-0.504c-0.027-0.25-0.253-0.432-0.499-0.404
			c-2.25,0.24-3.885,2.264-3.646,4.512c0.028,0.252,0.252,0.434,0.503,0.404c0.249-0.024,0.429-0.25,0.405-0.502
			C28.709,43.624,29.979,42.048,31.728,41.864z"/>
			<radialGradient id="SVGID_7_" cx="60.5923" cy="46.4024" r="12.1411" gradientUnits="userSpaceOnUse">
				<stop offset="0" style="stop-color:#FFFFFF"/>
				<stop offset="1" style="stop-color:#65ceff"/>
			</radialGradient>
			<path fill="url(#SVGID_7_)" d="M67.475,60.396c0.587-0.285,1.031-0.785,1.25-1.406c0.215-0.621,0.175-1.289-0.112-1.879
			l-1.628-3.352c-0.178-0.369-0.452-0.689-0.791-0.93c0.502-0.522,0.754-1.244,0.674-1.963l-0.399-3.699
			c-0.07-0.654-0.39-1.24-0.902-1.652c-0.243-0.195-0.522-0.344-0.817-0.434c0.225-0.225,0.396-0.479,0.519-0.76
			c0.258-0.605,0.264-1.275,0.018-1.883l-1.392-3.455c-0.24-0.598-0.709-1.074-1.316-1.342c-0.515-0.227-1.1-0.256-1.682-0.088
			c0.3-0.475,0.47-1.131,0.398-1.65c-0.098-0.693-0.398-1.25-0.896-1.654l-2.892-2.348c-0.436-0.354-0.986-0.547-1.55-0.547
			c-0.744,0-1.442,0.33-1.909,0.908l-1.173,1.443c-0.855,1.051-0.696,2.604,0.354,3.461l2.891,2.348
			c0.395,0.322,0.863,0.508,1.365,0.545c-0.111,0.486-0.074,0.99,0.117,1.461l1.395,3.455c0.219,0.549,0.625,0.992,1.15,1.262
			c-0.336,0.486-0.482,1.068-0.42,1.656l0.4,3.703c0.1,0.92,0.717,1.703,1.577,2.029c-0.434,0.295-0.761,0.719-0.931,1.217
			c-0.217,0.619-0.177,1.287,0.11,1.879l1.628,3.35c0.447,0.877,1.24,1.379,2.168,1.379c0.367,0,0.744-0.08,1.119-0.242
			L67.475,60.396z M57.803,38.86c-0.334,0.041-0.663-0.061-0.926-0.275l-2.891-2.346c-0.541-0.441-0.625-1.24-0.186-1.779
			l1.174-1.443c0.242-0.297,0.601-0.467,0.981-0.467c0.294,0,0.577,0.1,0.796,0.283l2.89,2.348c0.263,0.213,0.425,0.514,0.46,0.85
			c0.035,0.334-0.064,0.662-0.277,0.928l-1.172,1.443C58.439,38.663,58.137,38.827,57.803,38.86z M60.105,44.526l-1.395-3.455
			c-0.127-0.311-0.121-0.652,0.011-0.965c0.132-0.309,0.376-0.551,0.691-0.676l1.723-0.697c0.153-0.059,0.313-0.088,0.476-0.088
			c0.512,0,0.959,0.303,1.168,0.787l1.394,3.453c0.127,0.314,0.125,0.658-0.009,0.967c-0.134,0.313-0.378,0.551-0.688,0.674
			l-1.73,0.699c-0.154,0.063-0.316,0.096-0.479,0.096C60.766,45.321,60.321,45.017,60.105,44.526z M61.317,51.47l-0.399-3.705
			c-0.035-0.336,0.06-0.664,0.27-0.926c0.211-0.262,0.512-0.426,0.852-0.463l1.848-0.201c0.044-0.004,0.086-0.006,0.129-0.006
			c0.741,0,1.201,0.58,1.263,1.125l0.401,3.705c0.037,0.334-0.061,0.662-0.272,0.924c-0.212,0.266-0.513,0.43-0.85,0.465
			l-1.847,0.199C62.003,52.642,61.393,52.149,61.317,51.47z M64.73,60.259c-0.483,0-0.934-0.279-1.145-0.713l-1.625-3.348
			c-0.146-0.303-0.168-0.645-0.058-0.965c0.108-0.316,0.339-0.572,0.644-0.723l1.672-0.814c0.178-0.082,0.365-0.125,0.553-0.125
			c0.486,0,0.922,0.271,1.137,0.711l1.627,3.352c0.146,0.299,0.168,0.643,0.057,0.963c-0.11,0.318-0.338,0.574-0.643,0.723
			l-1.676,0.814C65.104,60.216,64.921,60.259,64.73,60.259z"/>
			<radialGradient id="SVGID_8_" cx="37.7104" cy="58.5596" r="9.4558" gradientUnits="userSpaceOnUse">
				<stop offset="0" style="stop-color:#FFFFFF"/>
				<stop offset="1" style="stop-color:#65ceff"/>
			</radialGradient>
			<path fill="url(#SVGID_8_)" d="M36.02,65.228c0.078,0.656,0.396,1.246,0.896,1.652l2.892,2.35
			c0.452,0.357,0.988,0.545,1.553,0.547c0.745,0,1.439-0.33,1.907-0.906l1.175-1.445c0.856-1.051,0.694-2.604-0.357-3.463
			l-2.889-2.344c-0.384-0.313-0.853-0.494-1.37-0.533c0.117-0.492,0.078-1.002-0.112-1.475l-1.394-3.455
			c-0.226-0.551-0.63-0.994-1.154-1.264c0.337-0.486,0.486-1.068,0.422-1.658l-0.399-3.699c-0.135-1.25-1.206-2.191-2.493-2.191
			c-0.07,0-0.141,0-0.219,0.008l-1.849,0.201c-1.349,0.146-2.329,1.363-2.183,2.713l0.401,3.699c0.07,0.656,0.39,1.242,0.901,1.652
			c0.241,0.193,0.52,0.342,0.82,0.434c-0.226,0.223-0.401,0.479-0.519,0.76c-0.258,0.604-0.264,1.273-0.02,1.885l1.394,3.451
			c0.243,0.602,0.71,1.08,1.316,1.344c0.205,0.092,0.536,0.195,0.957,0.195c0.252,0,0.505-0.035,0.754-0.111
			C36.099,64.103,35.957,64.655,36.02,65.228z M40.438,62.544l2.891,2.35c0.54,0.438,0.624,1.236,0.186,1.777l-1.175,1.443
			c-0.243,0.295-0.602,0.465-0.985,0.465c-0.292,0-0.565-0.096-0.791-0.279l-2.892-2.35c-0.261-0.213-0.425-0.514-0.46-0.848
			c-0.034-0.336,0.064-0.666,0.276-0.93l1.174-1.443c0.243-0.297,0.599-0.467,0.977-0.467C39.93,62.263,40.215,62.364,40.438,62.544
			z M32.498,54.685c-0.262-0.211-0.428-0.514-0.464-0.848l-0.4-3.703c-0.035-0.334,0.061-0.664,0.272-0.928
			c0.213-0.264,0.513-0.428,0.85-0.463l1.849-0.201c0.049-0.004,0.094-0.008,0.14-0.008c0.646,0,1.184,0.484,1.251,1.127
			l0.401,3.703c0.035,0.336-0.061,0.666-0.274,0.93c-0.211,0.262-0.51,0.426-0.845,0.463l-1.854,0.197
			C33.087,55.007,32.778,54.909,32.498,54.685z M36.174,62.397c-0.308,0.125-0.656,0.123-0.966-0.01
			c-0.309-0.133-0.551-0.377-0.677-0.689l-1.392-3.453c-0.255-0.67,0.046-1.375,0.697-1.641l0.072-0.031l1.653-0.666
			c0.155-0.059,0.318-0.09,0.479-0.09c0.511,0,0.961,0.303,1.167,0.787l1.392,3.453c0.129,0.313,0.123,0.656-0.009,0.969
			c-0.132,0.307-0.375,0.549-0.688,0.676L36.174,62.397z"/>
			<radialGradient id="SVGID_9_" cx="42.1238" cy="42.3282" r="9.6493" gradientUnits="userSpaceOnUse">
				<stop offset="0" style="stop-color:#FFFFFF"/>
				<stop offset="1" style="stop-color:#65ceff"/>
			</radialGradient>
			<path fill="url(#SVGID_9_)" d="M41.899,36.323l-1.451-3.475c-0.387-0.912-1.279-1.502-2.268-1.502
			c-0.331,0-0.653,0.066-0.957,0.197l-1.676,0.695c-1.252,0.514-1.855,1.953-1.342,3.211l1.452,3.475
			c0.385,0.906,1.266,1.492,2.247,1.5c-0.48,0.879-0.383,1.979,0.265,2.756l2.32,2.832c0.463,0.58,1.156,0.914,1.903,0.918
			c-0.063,0.387-0.029,0.781,0.094,1.15l1.207,3.57c0.341,0.99,1.277,1.658,2.327,1.658c0.272,0,0.539-0.045,0.797-0.135
			l1.717-0.578c1.289-0.428,1.989-1.82,1.566-3.109l-1.21-3.568c-0.342-0.992-1.274-1.658-2.326-1.658
			c-0.154,0-0.307,0.016-0.459,0.043c0.399-0.855,0.275-1.869-0.34-2.605l-2.32-2.834c-0.37-0.463-0.892-0.77-1.482-0.873
			C42.137,37.442,42.115,36.856,41.899,36.323z M37.924,39.229c-0.507,0-0.965-0.303-1.163-0.77l-1.447-3.467
			c-0.127-0.311-0.126-0.652,0.005-0.967c0.13-0.311,0.373-0.551,0.685-0.68l1.686-0.701c0.155-0.066,0.322-0.1,0.491-0.1
			c0.507,0,0.965,0.301,1.164,0.77l1.446,3.465c0.127,0.311,0.126,0.654-0.003,0.965c-0.131,0.313-0.377,0.553-0.688,0.682
			l-1.686,0.701C38.257,39.194,38.093,39.229,37.924,39.229z M46.156,45.526c0.132-0.047,0.27-0.068,0.409-0.068
			c0.539,0,1.02,0.342,1.193,0.85l1.203,3.557c0.107,0.32,0.082,0.662-0.07,0.963c-0.152,0.303-0.41,0.527-0.731,0.633l-1.731,0.582
			c-0.13,0.049-0.268,0.072-0.407,0.072c-0.54,0-1.021-0.344-1.196-0.854l-1.203-3.557c-0.105-0.32-0.079-0.662,0.073-0.965
			c0.149-0.301,0.412-0.525,0.731-0.629L46.156,45.526z M42.517,39.616l2.327,2.848c0.217,0.258,0.318,0.586,0.287,0.922
			c-0.029,0.338-0.188,0.641-0.446,0.857l-1.485,1.215c-0.228,0.182-0.5,0.277-0.791,0.277c-0.386,0-0.744-0.172-0.986-0.473
			l-2.332-2.848c-0.443-0.533-0.373-1.332,0.16-1.779l1.486-1.215c0.228-0.182,0.5-0.279,0.791-0.279
			C41.914,39.142,42.274,39.315,42.517,39.616z"/>
			<radialGradient id="SVGID_10_" cx="53.3663" cy="61.9902" r="7.0206" gradientUnits="userSpaceOnUse">
				<stop offset="0" style="stop-color:#FFFFFF"/>
				<stop offset="1" style="stop-color:#65ceff"/>
			</radialGradient>
			<path fill="url(#SVGID_10_)" d="M56.606,62.29l2.379-2.922c0.85-1.057,0.681-2.607-0.374-3.457l-1.404-1.144
			c-0.438-0.361-0.993-0.563-1.563-0.563c-0.738,0-1.432,0.326-1.902,0.894l-2.377,2.924c-0.622,0.773-0.716,1.824-0.26,2.689
			c-0.004,0-0.012,0-0.018,0c-1.01,0-1.906,0.602-2.284,1.535l-1.4,3.383c-0.258,0.604-0.264,1.271-0.017,1.883
			c0.246,0.609,0.714,1.088,1.317,1.344l1.794,0.742c0.295,0.121,0.604,0.178,0.917,0.178c1.013,0,1.907-0.604,2.282-1.537
			l1.403-3.383c0.233-0.549,0.258-1.154,0.07-1.719C55.736,63.03,56.24,62.735,56.606,62.29z M53.999,64.39l-1.409,3.4
			c-0.195,0.479-0.654,0.789-1.174,0.789c-0.162,0-0.32-0.029-0.47-0.09l-1.773-0.734c-0.639-0.271-0.941-1.016-0.668-1.66
			l1.409-3.398c0.191-0.48,0.654-0.791,1.174-0.791c0.16,0,0.318,0.031,0.469,0.09l1.775,0.736
			C53.97,63.005,54.271,63.747,53.999,64.39z M54.707,61.987c-0.292,0-0.576-0.102-0.802-0.285l-1.417-1.156
			c-0.26-0.209-0.423-0.51-0.463-0.844c-0.033-0.336,0.063-0.668,0.273-0.93l2.368-2.912c0.241-0.291,0.598-0.459,0.976-0.459
			c0.295,0,0.578,0.104,0.803,0.289l1.415,1.154c0.542,0.436,0.628,1.233,0.192,1.773l-2.369,2.91
			C55.441,61.821,55.084,61.987,54.707,61.987z"/>
			<radialGradient id="SVGID_11_" cx="55.0464" cy="47.5328" r="1.6808" gradientUnits="userSpaceOnUse">
				<stop offset="0" style="stop-color:#FFFFFF"/>
				<stop offset="1" style="stop-color:#65ceff"/>
			</radialGradient>
			<path fill="url(#SVGID_11_)" d="M53.811,48.96l2.93-2.262c0.164-0.125,0.194-0.361,0.067-0.525
			c-0.127-0.164-0.363-0.193-0.525-0.066l-2.93,2.26c-0.164,0.127-0.194,0.361-0.067,0.525c0.074,0.098,0.185,0.146,0.297,0.146
			C53.662,49.038,53.742,49.013,53.811,48.96z"/>
			<radialGradient id="SVGID_12_" cx="70.652" cy="43.3654" r="1.8295" gradientUnits="userSpaceOnUse">
				<stop offset="0" style="stop-color:#FFFFFF"/>
				<stop offset="1" style="stop-color:#65ceff"/>
			</radialGradient>
			<path fill="url(#SVGID_12_)" d="M72.445,44.776c0.129,0,0.256-0.066,0.325-0.188c0.104-0.178,0.042-0.408-0.138-0.512
			l-3.587-2.072c-0.177-0.104-0.408-0.043-0.512,0.137c-0.104,0.18-0.043,0.408,0.137,0.512l3.587,2.074
			C72.316,44.761,72.382,44.776,72.445,44.776z"/>
			<radialGradient id="SVGID_13_" cx="45.2129" cy="71.9606" r="1.6666" gradientUnits="userSpaceOnUse">
				<stop offset="0" style="stop-color:#FFFFFF"/>
				<stop offset="1" style="stop-color:#65ceff"/>
			</radialGradient>
			<path fill="url(#SVGID_13_)" d="M43.58,73.194c0.059,0,0.118-0.014,0.174-0.043l3.267-1.719c0.184-0.096,0.254-0.322,0.157-0.506
			c-0.096-0.186-0.323-0.252-0.506-0.156l-3.267,1.717c-0.184,0.096-0.254,0.322-0.157,0.506
			C43.314,73.122,43.445,73.194,43.58,73.194z"/>
			<radialGradient id="SVGID_14_" cx="49.7095" cy="50" r="30.7824" gradientUnits="userSpaceOnUse">
				<stop offset="0" style="stop-color:#FFFFFF"/>
				<stop offset="1" style="stop-color:#65ceff"/>
			</radialGradient>
			<path fill="url(#SVGID_14_)" d="M77.162,61.765c0.48,0.189,1.025-0.047,1.215-0.529c1.403-3.58,2.115-7.361,2.115-11.236
			c0-16.973-13.809-30.781-30.782-30.781c-16.974,0-30.783,13.809-30.783,30.781c0,16.975,13.81,30.783,30.783,30.783
			c6.005,0,11.824-1.73,16.827-5.004c0.434-0.283,0.555-0.863,0.271-1.297c-0.283-0.434-0.864-0.555-1.298-0.271
			c-4.697,3.072-10.161,4.697-15.801,4.697c-15.94,0-28.908-12.967-28.908-28.908c0-15.938,12.968-28.906,28.908-28.906
			c15.939,0,28.907,12.969,28.907,28.906c0,3.641-0.668,7.189-1.986,10.551C76.441,61.032,76.68,61.577,77.162,61.765z"/>
			<radialGradient id="SVGID_15_" cx="49.7094" cy="50" r="35.2566" gradientUnits="userSpaceOnUse">
				<stop offset="0" style="stop-color:#FFFFFF"/>
				<stop offset="1" style="stop-color:#65ceff"/>
			</radialGradient>
			<path fill="url(#SVGID_15_)" d="M68.845,77.356c-5.624,3.941-12.241,6.025-19.135,6.025c-18.407,0-33.382-14.975-33.382-33.383
			c0-18.406,14.975-33.381,33.382-33.381c18.406,0,33.381,14.975,33.381,33.381c0,4.037-0.71,7.98-2.112,11.717
			c-0.183,0.484,0.063,1.025,0.548,1.207c0.485,0.182,1.026-0.065,1.207-0.549c1.481-3.947,2.232-8.111,2.232-12.375
			c0-19.441-15.815-35.256-35.256-35.256c-19.44,0-35.257,15.814-35.257,35.256S30.27,85.257,49.71,85.257
			c7.28,0,14.269-2.201,20.211-6.365c0.424-0.295,0.526-0.881,0.229-1.305C69.854,77.163,69.27,77.06,68.845,77.356z"/>
			<radialGradient id="SVGID_16_" cx="77.3667" cy="71.6348" r="8.1804" gradientUnits="userSpaceOnUse">
				<stop offset="0" style="stop-color:#FFFFFF"/>
				<stop offset="1" style="stop-color:#65ceff"/>
			</radialGradient>
			<path fill="url(#SVGID_16_)" d="M77.367,63.454c-4.511,0-8.181,3.67-8.181,8.18c0,4.512,3.67,8.182,8.181,8.182
			c4.511,0,8.18-3.67,8.18-8.182C85.547,67.124,81.878,63.454,77.367,63.454z M77.367,78.315c-3.684,0-6.681-2.998-6.681-6.682
			c0-3.684,2.997-6.68,6.681-6.68c3.684,0,6.68,2.996,6.68,6.68C84.047,75.317,81.051,78.315,77.367,78.315z"/>
		</g>
	</g>
	<g id="nowe_komorki_macierzyste">
	</g>
	<g id="spowolnienie_procesow_starzenia">
	</g>
	<g id="rany_po_oparzeniach">
	</g>
	<g id="rzs">
	</g>
	<g id="borelioza">
	</g>
	<g id="urazy">
	</g>
	<g id="obrzeki">
	</g>
	<g id="stopa_cukrzycowa">
	</g>
	<g id="trudno_gojce_si_rany">
	</g>
	<g id="zapalenie_koci_i_szpiku">
	</g>
	<g id="choroby_serca">
	</g>
	<g id="uraz_rdzenia_krgowego">
	</g>
	<g id="rtg">
	</g>
	<g id="astma">
	</g>
</svg>
