<?xml version="1.0" encoding="utf-8"?>
<!-- Generator: Adobe Illustrator 24.0.1, SVG Export Plug-In . SVG Version: 6.00 Build 0)  -->
<svg version="1.1"
	xmlns="http://www.w3.org/2000/svg"
	xmlns:xlink="http://www.w3.org/1999/xlink" x="0px" y="0px" viewBox="0 0 100 100" enable-background="new 0 0 100 100" xml:space="preserve">
	<g id="urazy_sportowe">

		<linearGradient id="SVGID_1_" gradientUnits="userSpaceOnUse" x1="180.9752" y1="-31.9234" x2="278.4783" y2="-31.9234" gradientTransform="matrix(-0.1698 0.9855 -0.9855 -0.1698 57.2545 -181.9589)">
			<stop offset="0" style="stop-color:#FFFFFF"/>
			<stop offset="1" style="stop-color:#65ceff"/>
		</linearGradient>
		<path opacity="0.5" fill="url(#SVGID_1_)" d="M41.322,96.966c-12.367-2.11-23.753-9.262-31.054-19.495
		c-3.657-5.104-6.311-10.935-7.742-17.068c-1.44-6.131-1.642-12.554-0.628-18.788c1.059-6.227,3.332-12.252,6.695-17.612
		c3.355-5.363,7.781-10.056,12.941-13.734c5.164-3.671,11.055-6.324,17.24-7.743c6.184-1.428,12.653-1.606,18.921-0.562
		c6.266,1.059,12.333,3.34,17.732,6.72c5.403,3.372,10.132,7.823,13.84,13.015c3.689,5.204,6.363,11.136,7.771,17.367
		c1.4,6.233,1.539,12.737,0.453,19.024c-1.151,6.276-3.524,12.319-6.974,17.662c-3.463,5.336-8.004,9.936-13.22,13.505
		C66.852,96.403,53.662,99.213,41.322,96.966z M41.356,96.769c6.159,0.999,12.5,0.796,18.553-0.628
		c6.05-1.441,11.775-4.121,16.772-7.758c10.003-7.296,16.89-18.53,18.841-30.632c2.079-12.084-0.815-24.883-7.871-34.91
		c-3.508-5.018-8.01-9.345-13.179-12.644C69.306,6.89,63.477,4.627,57.424,3.54c-6.057-1.058-12.32-0.937-18.329,0.4
		c-6.01,1.328-11.756,3.858-16.81,7.391c-5.05,3.539-9.402,8.078-12.718,13.286c-3.324,5.205-5.595,11.075-6.682,17.167
		c-1.088,6.091-0.99,12.4,0.335,18.462c1.316,6.062,3.845,11.867,7.392,16.982c3.563,5.102,8.128,9.518,13.392,12.866
		C29.274,93.43,35.21,95.698,41.356,96.769z"/>
	</g>
	<g id="regeneracja_po_operacjach">
	</g>
	<g id="migreny">
	</g>
	<g id="depresja">
	</g>
	<g id="autyzm">
	</g>
	<g id="reumatyzm">
	</g>
	<g id="schorzenia_skry">
	</g>
	<g id="poprawa_cery">
	</g>
	<g id="wzmocnienie_kondycji">
	</g>
	<g id="infekcje">
	</g>
	<g id="nowe_komorki_macierzyste">
		<g>
			<radialGradient id="SVGID_2_" cx="50" cy="50" r="29.3801" gradientUnits="userSpaceOnUse">
				<stop offset="0" style="stop-color:#FFFFFF"/>
				<stop offset="1" style="stop-color:#65ceff"/>
			</radialGradient>
			<path fill="url(#SVGID_2_)" d="M54.808,21.318c-1.312-1.615-2.649-3.273-4.018-4.975c-0.376-0.434-1.032-0.479-1.467-0.103
			c-0.035,0.032-0.07,0.066-0.102,0.103c-1.362,1.705-2.703,3.363-4.02,4.975C34.551,34.432,26.137,44.79,26.137,59.084
			c0,18.399,12.855,24.93,23.863,24.93c11.01,0,23.863-6.53,23.863-24.93C73.873,44.79,65.46,34.433,54.808,21.318z M50.008,82.006
			c-3.649,0-21.855-1.106-21.855-22.922c0-13.58,8.213-23.694,18.613-36.498c1.063-1.309,2.143-2.644,3.242-4.007
			c1.097,1.365,2.176,2.701,3.242,4.008c10.398,12.805,18.611,22.917,18.611,36.497C71.861,80.899,53.656,82.006,50.008,82.006z"/>
			<radialGradient id="SVGID_3_" cx="50" cy="61.4751" r="13.9255" gradientUnits="userSpaceOnUse">
				<stop offset="0" style="stop-color:#FFFFFF"/>
				<stop offset="1" style="stop-color:#65ceff"/>
			</radialGradient>
			<path fill="url(#SVGID_3_)" d="M50,47.55c-7.691,0-13.926,6.234-13.926,13.926C36.074,69.165,42.309,75.4,50,75.4
			c7.69,0,13.926-6.235,13.926-13.925C63.916,53.788,57.685,47.559,50,47.55z M50,73.391c-6.582,0-11.915-5.336-11.915-11.915
			c0-6.581,5.333-11.916,11.915-11.916c6.58,0,11.915,5.335,11.915,11.916C61.906,68.052,56.577,73.382,50,73.391z"/>
			<radialGradient id="SVGID_5_" cx="50" cy="61.4742" r="8.1819" gradientUnits="userSpaceOnUse">
				<stop offset="0" style="stop-color:#FFFFFF"/>
				<stop offset="1" style="stop-color:#65ceff"/>
			</radialGradient>
			<path fill="url(#SVGID_5_)" d="M57.178,57.599h-3.302v-3.302c0-0.556-0.45-1.004-1.005-1.004h-5.744
			c-0.553,0-1.003,0.448-1.003,1.004v3.302h-3.302c-0.557,0-1.005,0.451-1.005,1.005v5.742c0,0.557,0.448,1.005,1.005,1.005h3.302
			v3.303c0,0.556,0.45,1.002,1.003,1.002h5.744c0.555,0,1.005-0.446,1.005-1.002v-3.303h3.302c0.555,0,1.005-0.448,1.005-1.005
			v-5.742C58.183,58.05,57.732,57.599,57.178,57.599z M56.173,63.341h-3.302c-0.555,0-1.005,0.449-1.005,1.005v3.302h-3.732v-3.302
			c0-0.556-0.45-1.005-1.007-1.005h-3.3v-3.732h3.3c0.557,0,1.007-0.45,1.007-1.005v-3.301h3.732v3.301
			c0,0.555,0.45,1.005,1.005,1.005h3.302V63.341z"/>
		</g>
	</g>
	<g id="spowolnienie_procesow_starzenia">
	</g>
	<g id="rany_po_oparzeniach">
	</g>
	<g id="rzs">
	</g>
	<g id="borelioza">
	</g>
	<g id="urazy">
	</g>
	<g id="obrzeki">
	</g>
	<g id="stopa_cukrzycowa">
	</g>
	<g id="trudno_gojce_si_rany">
	</g>
	<g id="zapalenie_koci_i_szpiku">
	</g>
	<g id="choroby_serca">
	</g>
	<g id="uraz_rdzenia_krgowego">
	</g>
	<g id="rtg">
	</g>
	<g id="astma">
	</g>
</svg>
