<?xml version="1.0" encoding="utf-8"?>
<!-- Generator: Adobe Illustrator 24.0.1, SVG Export Plug-In . SVG Version: 6.00 Build 0)  -->
<svg version="1.1"
	xmlns="http://www.w3.org/2000/svg"
	xmlns:xlink="http://www.w3.org/1999/xlink" x="0px" y="0px" viewBox="0 0 100 100" enable-background="new 0 0 100 100" xml:space="preserve">
	<g id="urazy_sportowe">

		<linearGradient id="SVGID_1_" gradientUnits="userSpaceOnUse" x1="609.696" y1="-539.8146" x2="707.1991" y2="-539.8146" gradientTransform="matrix(-0.1698 0.9855 -0.9855 -0.1698 -370.4407 -689.673)">
			<stop offset="0" style="stop-color:#FFFFFF"/>
			<stop offset="1" style="stop-color:#65ceff"/>
		</linearGradient>
		<path opacity="0.5" fill="url(#SVGID_1_)" d="M41.322,98.007c-12.367-2.11-23.753-9.262-31.054-19.495
		c-3.657-5.104-6.311-10.935-7.742-17.068c-1.44-6.131-1.642-12.554-0.628-18.788c1.059-6.227,3.332-12.252,6.695-17.612
		c3.355-5.363,7.781-10.056,12.941-13.734c5.164-3.671,11.055-6.324,17.24-7.743c6.184-1.428,12.653-1.606,18.921-0.562
		c6.266,1.059,12.333,3.34,17.732,6.72c5.403,3.372,10.132,7.823,13.84,13.015c3.689,5.204,6.363,11.136,7.771,17.367
		c1.4,6.233,1.539,12.737,0.453,19.024c-1.151,6.276-3.524,12.319-6.974,17.662c-3.463,5.336-8.004,9.936-13.22,13.505
		C66.852,97.443,53.662,100.254,41.322,98.007z M41.356,97.809c6.159,0.999,12.5,0.796,18.553-0.628
		c6.05-1.441,11.775-4.121,16.772-7.758c10.003-7.296,16.89-18.53,18.841-30.632c2.079-12.084-0.815-24.883-7.871-34.91
		c-3.508-5.018-8.01-9.345-13.179-12.644c-5.166-3.307-10.994-5.57-17.047-6.656c-6.057-1.058-12.32-0.937-18.329,0.4
		c-6.01,1.328-11.756,3.858-16.81,7.391c-5.05,3.539-9.402,8.078-12.718,13.286c-3.324,5.205-5.595,11.075-6.682,17.167
		c-1.088,6.091-0.99,12.4,0.335,18.462c1.316,6.062,3.845,11.867,7.392,16.982c3.563,5.102,8.128,9.518,13.392,12.866
		C29.274,94.471,35.21,96.739,41.356,97.809z"/>
	</g>
	<g id="regeneracja_po_operacjach">
	</g>
	<g id="migreny">
	</g>
	<g id="depresja">
	</g>
	<g id="autyzm">
	</g>
	<g id="reumatyzm">
	</g>
	<g id="schorzenia_skry">
	</g>
	<g id="poprawa_cery">
	</g>
	<g id="wzmocnienie_kondycji">
	</g>
	<g id="infekcje">
	</g>
	<g id="nowe_komorki_macierzyste">
	</g>
	<g id="spowolnienie_procesow_starzenia">
	</g>
	<g id="rany_po_oparzeniach">
	</g>
	<g id="rzs">
	</g>
	<g id="borelioza">
	</g>
	<g id="urazy">
	</g>
	<g id="obrzeki">
	</g>
	<g id="stopa_cukrzycowa">
	</g>
	<g id="trudno_gojce_si_rany">
	</g>
	<g id="zapalenie_koci_i_szpiku">
	</g>
	<g id="choroby_serca">
	</g>
	<g id="uraz_rdzenia_krgowego">
	</g>
	<g id="rtg">
		<g>
			<radialGradient id="SVGID_2_" cx="49.9965" cy="65.6861" r="12.4406" gradientUnits="userSpaceOnUse">
				<stop offset="0" style="stop-color:#FFFFFF"/>
				<stop offset="1" style="stop-color:#65ceff"/>
			</radialGradient>
			<path fill="url(#SVGID_2_)" d="M46.699,57.256c1.031,0.468,2.158,0.713,3.301,0.713c1.143,0,2.27-0.245,3.296-0.711l8.207,14.217
			c-3.533,1.895-7.487,2.893-11.484,2.893l-0.217-0.002c-3.947-0.035-7.844-1.031-11.313-2.888L46.699,57.256 M46.404,54.901
			c-0.117,0-0.235,0.016-0.35,0.047c-0.342,0.088-0.632,0.312-0.809,0.618l-8.971,15.538c-0.178,0.306-0.227,0.67-0.133,1.01
			c0.09,0.342,0.313,0.634,0.62,0.811c3.953,2.278,8.455,3.503,13.021,3.544c0.078,0.002,0.159,0.002,0.235,0.002
			c4.624,0,9.185-1.225,13.211-3.551c0.639-0.368,0.857-1.183,0.488-1.817L54.75,55.57c-0.175-0.309-0.467-0.528-0.808-0.622
			c-0.112-0.029-0.228-0.045-0.341-0.045c-0.233,0-0.465,0.062-0.672,0.18c-0.885,0.512-1.899,0.782-2.93,0.782
			c-1.031,0-2.047-0.271-2.934-0.784C46.865,54.962,46.635,54.901,46.404,54.901L46.404,54.901z"/>
			<radialGradient id="SVGID_3_" cx="35.6304" cy="39.1152" r="12.1591" gradientUnits="userSpaceOnUse">
				<stop offset="0" style="stop-color:#FFFFFF"/>
				<stop offset="1" style="stop-color:#65ceff"/>
			</radialGradient>
			<path fill="url(#SVGID_3_)" d="M37.152,29.294l8.21,14.225c-1.863,1.339-3.069,3.431-3.293,5.711H25.646
			c0.129-4.082,1.279-8.071,3.347-11.583C30.995,34.249,33.806,31.375,37.152,29.294 M37.429,26.897
			c-0.232,0-0.464,0.061-0.668,0.18c-3.949,2.284-7.262,5.569-9.579,9.501C24.795,40.632,23.53,45.271,23.53,50
			c0,0.735,0.596,1.333,1.332,1.333h17.94c0.737,0,1.333-0.6,1.333-1.333c0-2.088,1.124-4.033,2.932-5.081
			c0.637-0.367,0.854-1.18,0.483-1.817l-8.969-15.538c-0.177-0.307-0.469-0.528-0.811-0.621
			C37.659,26.912,37.543,26.897,37.429,26.897L37.429,26.897z"/>
			<radialGradient id="SVGID_5_" cx="64.367" cy="39.1176" r="12.1582" gradientUnits="userSpaceOnUse">
				<stop offset="0" style="stop-color:#FFFFFF"/>
				<stop offset="1" style="stop-color:#65ceff"/>
			</radialGradient>
			<path fill="url(#SVGID_5_)" d="M62.842,29.299c3.473,2.153,6.352,5.143,8.356,8.686c1.942,3.434,3.026,7.307,3.154,11.245H57.931
			c-0.224-2.282-1.431-4.374-3.298-5.713L62.842,29.299 M62.566,26.902c-0.461,0-0.908,0.238-1.153,0.664l-8.969,15.534
			c-0.366,0.637-0.149,1.45,0.485,1.816c1.812,1.048,2.936,2.995,2.936,5.083c0,0.735,0.598,1.333,1.333,1.333h17.936
			c0.354,0,0.695-0.142,0.943-0.392c0.25-0.251,0.391-0.589,0.391-0.943c-0.004-4.563-1.191-9.075-3.44-13.049
			c-2.313-4.091-5.702-7.506-9.798-9.869C63.02,26.959,62.792,26.902,62.566,26.902L62.566,26.902z"/>
			<radialGradient id="SVGID_6_" cx="50" cy="50" r="4.4912" gradientUnits="userSpaceOnUse">
				<stop offset="0" style="stop-color:#FFFFFF"/>
				<stop offset="1" style="stop-color:#65ceff"/>
			</radialGradient>
			<path fill="url(#SVGID_6_)" d="M50,45.509c-2.477,0-4.491,2.015-4.491,4.491c0,2.476,2.015,4.491,4.491,4.491
			c2.477,0,4.491-2.016,4.491-4.491C54.491,47.523,52.477,45.509,50,45.509z M50,52.388c-1.316,0-2.388-1.071-2.388-2.388
			s1.071-2.388,2.388-2.388c1.316,0,2.388,1.071,2.388,2.388S51.316,52.388,50,52.388z"/>
			<radialGradient id="SVGID_7_" cx="50" cy="50" r="31.8809" gradientUnits="userSpaceOnUse">
				<stop offset="0" style="stop-color:#FFFFFF"/>
				<stop offset="1" style="stop-color:#65ceff"/>
			</radialGradient>
			<path fill="url(#SVGID_7_)" d="M50,81.881c-8.518,0-16.523-3.315-22.543-9.337C21.435,66.523,18.119,58.516,18.119,50
			c0-8.517,3.316-16.523,9.339-22.543c6.018-6.022,14.023-9.338,22.542-9.338c8.517,0,16.523,3.316,22.543,9.339
			c6.021,6.021,9.338,14.027,9.338,22.542c0,8.514-3.316,16.521-9.338,22.544C66.522,78.565,58.516,81.881,50,81.881z M50,20.222
			c-7.957,0-15.435,3.098-21.055,8.723C23.319,34.567,20.222,42.045,20.222,50s3.098,15.433,8.723,21.058
			c5.622,5.624,13.1,8.721,21.056,8.721c7.955,0,15.432-3.097,21.056-8.721c5.625-5.627,8.723-13.105,8.723-21.058
			s-3.098-15.431-8.723-21.056C65.433,23.319,57.955,20.222,50,20.222z"/>
		</g>
	</g>
	<g id="astma">
	</g>
</svg>
